<svg xmlns="http://www.w3.org/2000/svg" xmlns:xlink="http://www.w3.org/1999/xlink" width="1200" zoomAndPan="magnify" viewBox="0 0 900 899.99999" height="1200" preserveAspectRatio="xMidYMid meet" version="1.0"><defs><clipPath id="a78a2fa0dc"><path d="M 90 145.441406 L 825 145.441406 L 825 740.941406 L 90 740.941406 Z M 90 145.441406 " clip-rule="nonzero"/></clipPath></defs><g clip-path="url(#a78a2fa0dc)"><path fill="#0b3c9e" d="M 783.367188 395.789062 L 781.492188 398.511719 L 778.425781 400.390625 L 776.207031 402.949219 L 772.457031 404.140625 L 768.199219 407.296875 L 766.070312 409.515625 C 766.070312 409.515625 764.019531 410.632812 764.019531 411.046875 C 764.019531 411.480469 764.195312 413.011719 763.929688 413.175781 C 763.675781 413.355469 760.863281 415.140625 760.863281 415.140625 L 761.367188 422.230469 L 761.964844 424.699219 L 763.929688 425.207031 C 763.929688 425.207031 763.585938 427.589844 764.359375 428.109375 C 765.132812 428.617188 767.769531 429.210938 767.769531 429.210938 L 767.859375 431.429688 C 767.859375 431.429688 770.164062 431.085938 771.265625 432.457031 C 772.382812 433.828125 772.203125 435.179688 772.203125 435.179688 L 773.988281 435.6875 L 775.523438 437.996094 L 776.027344 439.527344 L 778.410156 440.214844 L 780.03125 444.054688 L 782.160156 445.171875 L 783.1875 449.175781 L 782.59375 456.082031 L 783.621094 458.136719 L 785.835938 459.582031 L 786.953125 462.828125 L 787.636719 465.386719 L 790.703125 466.160156 L 791.820312 468.542969 C 791.820312 468.542969 794.722656 469.988281 794.46875 470.242188 C 794.21875 470.496094 794.21875 473.828125 793.964844 473.828125 C 793.710938 473.828125 789.960938 474.335938 789.960938 474.335938 L 787.578125 477.492188 L 786.046875 478.519531 L 783.738281 479.976562 L 782.636719 482.015625 L 781.609375 483.296875 L 779.394531 484.742188 L 779.140625 487.808594 L 776.832031 488.835938 L 775.804688 491.992188 L 773.5 493.273438 C 773.5 493.273438 772.308594 495.667969 772.054688 495.667969 C 771.800781 495.667969 770.773438 496.859375 770.6875 497.113281 C 770.597656 497.367188 769.746094 499.761719 769.746094 499.761719 C 769.746094 499.761719 768.378906 500.863281 768.378906 501.476562 C 768.378906 502.070312 768.214844 503.605469 767.785156 503.945312 C 767.351562 504.289062 765.746094 505.0625 765.746094 505.0625 C 765.746094 505.0625 765.238281 506.847656 764.894531 507.445312 C 764.554688 508.039062 763.363281 509.066406 763.363281 509.066406 C 763.363281 509.066406 761.742188 510.601562 761.398438 511.03125 C 761.054688 511.464844 759.613281 512.65625 759.777344 513.074219 C 759.941406 513.503906 760.371094 526.292969 760.371094 526.292969 L 758.585938 529.449219 C 758.585938 529.449219 757.46875 529.878906 757.304688 530.640625 C 757.140625 531.414062 756.710938 536.355469 756.960938 536.609375 C 757.214844 536.863281 762.765625 537.292969 762.765625 537.292969 C 762.765625 537.292969 764.390625 537.203125 764.300781 537.292969 C 764.210938 537.382812 764.984375 539.675781 765.328125 539.945312 C 765.667969 540.199219 768.140625 540.539062 768.140625 540.539062 C 768.140625 540.539062 770.015625 540.628906 770.105469 540.882812 C 770.195312 541.136719 770.878906 542.074219 770.699219 542.757812 C 770.523438 543.441406 769.585938 544.8125 769.585938 544.8125 C 769.585938 544.8125 768.46875 546.347656 768.808594 546.851562 C 769.152344 547.359375 771.027344 547.285156 771.191406 547.789062 C 771.355469 548.296875 771.875 551.792969 771.949219 552.390625 C 772.039062 552.984375 773.230469 554.949219 773.230469 554.949219 L 775.015625 554.949219 C 775.015625 554.949219 777.324219 558.539062 777.667969 558.792969 C 778.007812 559.046875 780.316406 559.386719 780.316406 559.386719 C 780.316406 559.386719 781.507812 558.957031 781.507812 559.386719 C 781.507812 559.820312 783.886719 561.425781 784.066406 561.695312 C 784.246094 561.949219 785.597656 563.066406 785.597656 563.066406 C 785.597656 563.066406 786.789062 564.6875 787.042969 564.6875 C 787.296875 564.6875 790.035156 566.222656 790.035156 566.222656 L 791.316406 566.90625 L 792.164062 569.289062 L 792.074219 572.28125 L 790.75 574.511719 L 789.601562 576.375 L 788.574219 578.605469 L 787.742188 580.527344 L 786.402344 581.480469 L 784.035156 582.375 L 781.804688 583.402344 L 779.691406 582.507812 L 777.710938 581.167969 L 776.625 579.945312 L 775.789062 579.246094 L 773.558594 577.773438 L 772.277344 577 L 770.433594 577.191406 C 770.433594 577.191406 767.558594 577.699219 767.234375 577.445312 C 766.90625 577.191406 764.613281 576.238281 764.613281 576.238281 L 761.546875 576.238281 L 759.3125 575.40625 L 756.25 574.765625 L 754.582031 572.265625 L 752.082031 572.070312 L 749.582031 571.820312 L 746.828125 571.179688 L 744.328125 570.03125 L 741.824219 572.085938 L 740.351562 573.171875 L 739.710938 573.8125 L 737.152344 575.480469 L 735.558594 576.820312 C 735.558594 576.820312 732.804688 577.265625 732.6875 577.015625 C 732.554688 576.761719 732.746094 574.585938 731.601562 574.140625 C 730.453125 573.695312 728.402344 574.007812 727.835938 573.753906 C 727.253906 573.5 724.25 573.171875 724.25 573.171875 L 722.714844 571.953125 L 719.902344 571.894531 L 717.847656 573.308594 C 717.847656 573.308594 717.34375 574.261719 716.433594 574.082031 C 715.542969 573.886719 712.726562 574.214844 712.726562 574.214844 L 708.128906 574.082031 L 705.703125 574.335938 L 701.921875 573.441406 L 696.042969 573.636719 C 696.042969 573.636719 690.609375 573.769531 690.359375 573.828125 C 690.105469 573.886719 688.242188 574.335938 688.242188 574.335938 C 688.242188 574.335938 688.4375 575.75 687.46875 575.75 C 686.503906 575.75 684.015625 576.078125 683.511719 575.882812 C 683.003906 575.6875 681.726562 574.023438 681.726562 574.023438 L 678.910156 573.246094 L 678.019531 572.160156 L 675.519531 570.300781 L 671.558594 569.273438 L 669.503906 567.800781 L 664.964844 567.21875 L 661.125 566.578125 L 659.710938 564.792969 C 659.710938 564.792969 656.125 565.371094 655.929688 565.238281 C 655.738281 565.105469 652.539062 562.363281 652.34375 562.289062 C 652.152344 562.230469 649.011719 561.457031 649.011719 561.457031 L 647.34375 559.34375 L 644.84375 558.390625 L 644.84375 555.636719 L 646.882812 554.800781 L 648.472656 553.523438 C 648.472656 553.523438 649.8125 551.15625 649.8125 550.902344 C 649.8125 550.648438 649.875 548.402344 649.875 548.402344 L 650.902344 546.347656 L 652.121094 545.320312 L 652.628906 540.585938 L 656.660156 540.078125 L 655.707031 536.816406 L 651.109375 536.625 L 648.996094 535.03125 L 648.550781 531.191406 C 648.550781 531.191406 649.128906 529.65625 649.324219 529.65625 C 649.515625 529.65625 651.496094 528.882812 652.328125 528.957031 C 653.164062 529.015625 655.53125 529.089844 655.53125 529.089844 L 656.675781 525.503906 C 656.675781 525.503906 658.269531 525.117188 658.460938 525.058594 C 658.65625 524.996094 660.128906 522.496094 660.128906 522.496094 C 660.128906 522.496094 660.382812 521.855469 659.621094 521.855469 C 658.847656 521.855469 656.808594 521.722656 656.421875 522.628906 C 656.035156 523.523438 653.921875 524.105469 653.742188 524.164062 C 653.550781 524.222656 653.429688 524.996094 652.402344 525.382812 C 651.375 525.773438 647.984375 525.964844 647.671875 526.085938 C 647.34375 526.21875 646.332031 526.664062 646.136719 527.171875 C 645.945312 527.675781 645.558594 529.476562 644.796875 529.730469 C 644.023438 529.984375 641.792969 529.792969 641.792969 529.984375 C 641.792969 530.179688 641.210938 532.796875 640.957031 532.992188 C 640.707031 533.183594 637.3125 534.136719 637.3125 534.136719 C 637.3125 534.136719 636.34375 536.3125 636.089844 536.371094 C 635.839844 536.429688 631.164062 537.144531 631.046875 537.339844 C 630.910156 537.53125 630.464844 539.839844 630.273438 539.960938 C 630.078125 540.09375 627.519531 541.046875 627.519531 541.046875 C 627.519531 541.046875 626.371094 543.21875 626.179688 543.472656 C 625.984375 543.726562 622.859375 544.945312 622.785156 545.140625 C 622.726562 545.332031 619.585938 547.640625 619.585938 547.640625 L 614.597656 548.085938 C 614.597656 548.085938 610.894531 548.402344 610.953125 549.308594 C 611.011719 550.203125 610.699219 551.15625 611.398438 551.421875 C 612.097656 551.675781 616.578125 551.675781 617.277344 551.617188 C 617.976562 551.558594 619.511719 552.449219 619.511719 552.449219 L 620.789062 553.863281 L 622.265625 555.085938 L 626.550781 555.726562 C 626.550781 555.726562 630.195312 557.585938 630.449219 557.585938 C 630.703125 557.585938 632.949219 555.992188 633.648438 555.664062 C 634.351562 555.351562 636.152344 555.351562 636.910156 555.414062 C 637.667969 555.472656 640.867188 555.546875 641.003906 555.726562 C 641.136719 555.917969 641.703125 559.507812 641.644531 559.683594 C 641.582031 559.878906 641.894531 561.992188 641.0625 562.4375 C 640.230469 562.886719 637.863281 562.886719 636.835938 563.019531 C 635.808594 563.140625 630.0625 562.515625 630.433594 563.464844 C 630.820312 564.417969 630.882812 565.640625 630.433594 566.027344 C 629.988281 566.414062 628.261719 567.5 628.007812 567.695312 C 627.757812 567.886719 625.777344 569.226562 625.582031 569.289062 C 625.390625 569.347656 624.304688 570.121094 623.796875 570.507812 C 623.289062 570.894531 623.289062 570.253906 622.398438 571.207031 C 621.503906 572.175781 620.539062 573.960938 620.476562 574.15625 C 620.417969 574.347656 619.0625 574.214844 619.003906 574.410156 C 618.945312 574.601562 618.75 576.582031 618.558594 576.777344 C 618.363281 576.96875 616.058594 577.921875 615.417969 577.996094 C 614.777344 578.054688 610.996094 578.054688 610.625 577.804688 C 610.238281 577.550781 608.257812 577.609375 608.199219 576.390625 C 608.140625 575.167969 607.8125 573.636719 607.8125 572.933594 C 607.8125 572.234375 608.003906 568.648438 607.945312 568.261719 C 607.886719 567.875 607.304688 567.039062 607.304688 567.039062 L 604.746094 566.652344 L 603.40625 566.519531 C 603.40625 566.519531 597.453125 566.578125 597.199219 566.460938 C 596.945312 566.324219 596.367188 564.34375 596.558594 564.03125 C 596.753906 563.71875 597.332031 562.632812 597.972656 562.1875 C 598.613281 561.738281 598.554688 561.21875 599.121094 560.964844 C 599.699219 560.710938 601.425781 559.179688 601.425781 559.179688 C 601.425781 559.179688 602.960938 558.597656 603.285156 558.03125 C 603.597656 557.453125 603.09375 555.53125 603.597656 555.414062 C 604.105469 555.277344 605.714844 555.027344 606.546875 554.445312 C 607.378906 553.863281 608.019531 552.523438 607.828125 552.210938 C 607.632812 551.898438 601.558594 552.078125 601.558594 552.078125 L 597.40625 551.882812 C 597.40625 551.882812 597.347656 553.609375 596.441406 554.445312 C 595.546875 555.277344 594.132812 555.785156 593.300781 555.589844 C 592.464844 555.398438 591.378906 555.339844 590.933594 554.890625 C 590.488281 554.445312 589.460938 552.136719 589.460938 552.136719 C 589.460938 552.136719 587.480469 551.496094 587.226562 551.496094 C 586.972656 551.496094 585.367188 551.183594 585.367188 551.183594 L 583.773438 549.84375 C 583.773438 549.84375 582.242188 549.457031 582.046875 549.203125 C 581.855469 548.953125 581.347656 548.058594 581.347656 548.058594 C 581.347656 548.058594 578.980469 547.671875 578.207031 548.371094 C 577.433594 549.070312 575.902344 550.796875 575.515625 551.125 C 575.125 551.4375 574.425781 551.765625 574.488281 552.269531 C 574.546875 552.777344 574.175781 555.976562 574.175781 555.976562 L 573.148438 557.257812 C 573.148438 557.257812 572.761719 558.480469 572.386719 559.046875 C 572 559.625 570.972656 560.90625 570.972656 561.097656 C 570.972656 561.292969 569.5 562.960938 569.5 562.960938 C 569.5 562.960938 567.519531 563.273438 567.519531 563.71875 C 567.519531 564.167969 567.132812 567.949219 567.132812 567.949219 C 567.132812 567.949219 567.074219 577.28125 566.882812 577.417969 C 566.6875 577.550781 564.828125 578.367188 564.828125 578.367188 L 562.207031 580.347656 C 562.207031 580.347656 560.152344 580.988281 559.515625 581.242188 C 558.875 581.496094 557.789062 582.714844 557.789062 582.714844 L 557.339844 587.316406 C 557.339844 587.316406 555.75 591.15625 555.925781 591.664062 C 556.121094 592.167969 554.898438 604.140625 554.898438 604.140625 L 552.207031 604.140625 L 551.953125 606.699219 C 551.953125 606.699219 549.082031 607.207031 549.082031 607.398438 C 549.082031 607.59375 548.5 614.695312 548.5 614.695312 C 548.5 614.695312 546.773438 616.554688 546.773438 616.734375 C 546.773438 616.914062 548.113281 619.234375 548.113281 619.234375 L 548.5 621.46875 L 551.371094 622.882812 C 551.371094 622.882812 551.757812 627.929688 552.070312 628.449219 C 552.382812 628.957031 554.496094 630.3125 554.691406 630.429688 C 554.886719 630.566406 556.105469 633.050781 557.3125 633.496094 C 558.53125 633.945312 562.742188 634.136719 562.742188 634.136719 C 562.742188 634.136719 566.003906 634.273438 566.195312 634.136719 C 566.390625 634.003906 567.28125 637.589844 567.28125 637.785156 C 567.28125 637.980469 566.257812 640.464844 566.257812 640.464844 L 563.441406 640.464844 C 563.441406 640.464844 558.457031 640.984375 558.261719 640.984375 C 558.070312 640.984375 552.382812 641.492188 552.382812 641.492188 L 549.628906 641.492188 L 548.097656 644.691406 L 545.863281 645.199219 L 545.03125 648.59375 L 542.726562 650.007812 L 541.058594 652.566406 C 541.058594 652.566406 537.859375 652.507812 537.664062 652.566406 C 537.472656 652.628906 536.578125 655.769531 536.578125 655.769531 C 536.578125 655.769531 533.765625 656.214844 533.378906 655.769531 C 532.992188 655.324219 533.570312 653.34375 532.738281 652.628906 C 531.902344 651.929688 530.042969 652.566406 529.730469 651.734375 C 529.417969 650.902344 530.625 649.753906 529.730469 649.113281 C 528.839844 648.472656 527.886719 648.667969 527.363281 648.222656 C 526.859375 647.773438 525.132812 647 524.609375 647 C 524.105469 647 520.652344 645.972656 520.652344 645.972656 C 520.652344 645.972656 518.34375 645.71875 517.703125 645.839844 C 517.066406 645.972656 514.386719 646.226562 514.757812 646.613281 C 515.144531 647 515.902344 648.28125 515.902344 648.28125 L 515.398438 650.066406 C 515.398438 650.066406 515.265625 651.214844 514.757812 651.601562 C 514.25 651.988281 512.0625 652.628906 512.0625 652.628906 L 510.144531 650.453125 L 507.332031 650.199219 L 503.921875 654.085938 L 506.644531 654.773438 C 506.644531 654.773438 508.015625 655.292969 508.523438 655.976562 C 509.027344 656.648438 510.398438 659.550781 510.398438 659.550781 C 510.398438 659.550781 509.207031 659.386719 508.015625 659.550781 C 506.824219 659.714844 505.632812 658.703125 505.113281 658.523438 C 504.605469 658.359375 503.238281 658.179688 503.238281 658.179688 L 504.769531 659.566406 C 504.769531 659.566406 504.933594 663.808594 504.265625 663.464844 C 503.582031 663.125 501.542969 660.742188 501.542969 660.742188 L 500.007812 660.054688 C 500.007812 660.054688 499.84375 662.097656 499.324219 662.617188 C 498.816406 663.125 495.914062 664.878906 495.914062 663.496094 C 495.914062 662.109375 495.914062 660.921875 495.410156 660.578125 C 494.902344 660.234375 492 660.398438 492 660.398438 C 492 660.398438 490.125 661.082031 489.945312 662.453125 C 489.78125 663.824219 489.945312 664.671875 490.632812 665.863281 C 491.316406 667.054688 494.21875 669.449219 494.382812 669.957031 C 494.546875 670.464844 495.914062 673.203125 495.914062 673.871094 C 495.914062 674.558594 499.160156 675.75 499.160156 675.75 C 499.160156 675.75 499.664062 678.652344 500.1875 679.15625 C 500.707031 679.664062 503.59375 681.539062 504.800781 681.882812 C 505.992188 682.222656 507.867188 683.074219 508.386719 683.59375 C 508.894531 684.101562 512.480469 689.742188 512.480469 689.742188 C 512.480469 689.742188 514.191406 691.113281 514.699219 691.453125 C 515.203125 691.796875 518.105469 694.179688 518.105469 694.179688 L 521.007812 696.234375 C 521.007812 696.234375 523.910156 698.957031 524.074219 699.820312 C 524.074219 699.820312 521.171875 698.71875 518.878906 698.71875 C 516.574219 698.71875 515.546875 694.371094 513.253906 694.878906 C 510.949219 695.382812 507.882812 696.160156 508.65625 696.410156 C 509.429688 696.664062 513 699.136719 513 699.820312 C 513 700.507812 514.535156 704.09375 515.039062 704.851562 C 515.546875 705.628906 517.855469 708.945312 517.855469 708.945312 L 517.078125 711.507812 L 514.773438 714.828125 C 514.773438 714.828125 511.453125 716.109375 511.453125 714.828125 C 511.453125 713.546875 513.238281 711.507812 513.238281 711.507812 L 513.746094 708.441406 C 513.746094 708.441406 513.746094 706.386719 512.972656 705.878906 C 512.199219 705.375 511.1875 702.292969 511.1875 702.292969 C 511.1875 702.292969 509.90625 701.011719 509.148438 701.011719 C 508.371094 701.011719 504.28125 699.480469 503.519531 699.730469 C 502.746094 699.984375 498.652344 698.957031 499.933594 701.011719 C 501.214844 703.050781 502.492188 703.824219 501.71875 704.332031 C 500.960938 704.839844 500.441406 704.332031 499.679688 704.839844 C 498.90625 705.34375 497.375 706.117188 496.363281 706.625 C 495.335938 707.132812 494.054688 704.839844 495.335938 707.132812 C 496.613281 709.4375 496.109375 710.449219 496.613281 712.253906 C 497.121094 714.039062 496.613281 713.382812 497.121094 715.378906 C 497.640625 717.375 498.652344 719.414062 497.121094 719.414062 C 495.585938 719.414062 494.308594 716.347656 494.308594 716.347656 L 492.773438 715.066406 L 489.960938 715.570312 C 489.960938 715.570312 488.933594 716.597656 488.933594 717.613281 C 488.933594 718.640625 487.65625 719.398438 487.65625 719.398438 C 487.65625 719.398438 486.375 716.585938 486.375 715.808594 C 486.375 715.035156 485.601562 714.53125 484.839844 713.503906 C 484.066406 712.476562 481.253906 711.714844 481.253906 711.714844 L 481 714.53125 L 478.441406 713.769531 C 478.441406 713.769531 477.933594 709.929688 477.160156 709.421875 C 476.386719 708.917969 476.132812 705.328125 476.132812 704.300781 C 476.132812 703.273438 473.828125 699.957031 473.828125 699.957031 C 473.828125 699.957031 468.960938 702.261719 469.988281 698.421875 C 471.015625 694.582031 470.761719 695.859375 471.015625 694.582031 C 471.265625 693.300781 475.613281 689.980469 475.613281 689.980469 L 469.988281 688.699219 L 467.679688 685.632812 L 465.121094 685.378906 L 462.8125 683.59375 C 462.8125 683.59375 465.878906 679.246094 465.121094 679.246094 C 464.363281 679.246094 462.308594 677.964844 462.308594 677.964844 L 460.269531 674.898438 L 457.960938 673.621094 C 457.960938 673.621094 455.652344 672.84375 454.894531 672.085938 C 454.136719 671.3125 450.296875 669.777344 451.324219 667.992188 C 452.351562 666.207031 454.640625 665.429688 454.640625 665.429688 L 452.335938 663.644531 L 449.269531 660.058594 L 447.484375 655.1875 C 447.484375 655.1875 447.988281 643.160156 447.988281 642.386719 C 447.988281 641.609375 450.550781 638.039062 450.550781 638.039062 C 450.550781 638.039062 449.269531 635.222656 447.988281 634.449219 C 446.710938 633.675781 443.121094 629.074219 443.121094 629.074219 L 437.242188 623.449219 L 431.617188 620.632812 L 424.457031 617.566406 C 424.457031 617.566406 421.644531 616.792969 420.871094 616.792969 C 420.097656 616.792969 415.246094 616.289062 414.472656 615.765625 C 413.695312 615.261719 409.871094 616.539062 411.136719 613.980469 C 412.417969 611.417969 414.472656 609.632812 413.191406 608.351562 C 411.910156 607.070312 407.3125 603.738281 407.3125 603.738281 L 403.722656 600.148438 C 403.722656 600.148438 401.417969 600.148438 400.40625 599.644531 C 399.378906 599.136719 397.339844 596.054688 397.339844 596.054688 L 399.644531 590.175781 L 398.871094 584.800781 L 398.871094 580.363281 C 398.871094 580.363281 396.832031 577.640625 395.121094 577.640625 C 393.425781 577.640625 392.054688 580.363281 392.054688 580.363281 L 388.304688 583.429688 C 388.304688 583.429688 386.429688 585.484375 385.746094 585.144531 C 385.058594 584.800781 384.375 581.210938 384.375 581.210938 L 382.664062 577.96875 L 382.84375 573.1875 L 384.554688 571.148438 L 381.488281 569.09375 L 378.765625 569.941406 L 375.175781 571.132812 L 371.605469 573.351562 L 370.234375 576.078125 L 371.261719 578.292969 C 371.261719 578.292969 369.894531 583.238281 369.730469 583.757812 C 369.566406 584.265625 370.070312 587.6875 370.070312 588.195312 C 370.070312 588.699219 371.949219 593.136719 371.949219 593.136719 L 376.382812 597.066406 L 378.257812 599.449219 L 381.324219 602.175781 L 383.882812 605.582031 L 384.570312 609.511719 L 385.9375 618.222656 L 390.210938 622.496094 C 390.210938 622.496094 392.933594 624.878906 393.453125 625.21875 C 393.960938 625.5625 398.394531 629.476562 398.394531 629.476562 L 402.148438 628.628906 L 407.089844 627.945312 C 407.089844 627.945312 409.648438 631.355469 410.15625 632.542969 C 410.660156 633.734375 410.839844 635.953125 410.839844 637.664062 C 410.839844 639.378906 412.894531 641.238281 413.398438 641.582031 C 413.90625 641.921875 418.175781 643.800781 418.863281 644.304688 C 419.546875 644.8125 422.105469 645.496094 422.449219 646.019531 C 422.789062 646.523438 426.035156 649.605469 426.035156 649.605469 L 430.648438 651.644531 L 433.375 654.027344 L 436.960938 656.75 L 438.328125 661.53125 L 436.796875 664.777344 L 433.894531 667.15625 L 431.675781 663.570312 L 429.800781 660.667969 L 426.898438 659.296875 L 423.652344 656.902344 L 419.902344 656.214844 L 418.027344 657.40625 L 417 660.132812 L 415.972656 662.511719 L 413.757812 665.417969 L 415.632812 668.484375 L 418.355469 670.015625 L 421.421875 671.386719 L 422.269531 676.851562 L 420.230469 679.917969 L 415.972656 681.957031 L 414.261719 687.078125 L 412.042969 688.953125 L 410.675781 690.144531 L 409.484375 692.703125 L 407.609375 695.773438 L 405.050781 696.277344 L 400.449219 692.183594 L 400.449219 690.8125 L 401.476562 688.597656 L 402.847656 686.71875 L 404.039062 683.3125 L 406.761719 681.257812 L 407.265625 677.667969 L 406.078125 672.382812 L 404.886719 670.507812 L 404.199219 666.917969 L 402.832031 663.851562 L 399.246094 662.824219 L 397.207031 660.785156 L 395.152344 659.9375 L 393.277344 658.910156 L 391.566406 653.789062 L 388.839844 652.761719 L 386.625 651.570312 L 384.910156 648.847656 L 382.871094 647.996094 L 381.503906 644.410156 L 379.96875 642.699219 L 377.917969 641.671875 L 373.824219 641.328125 L 370.757812 639.957031 L 369.058594 638.082031 L 366.5 636.207031 L 365.132812 632.796875 L 362.40625 630.074219 L 360.351562 628.019531 L 358.136719 625.117188 L 357.628906 620.679688 L 355.410156 619.308594 L 352.167969 617.941406 L 349.949219 614.53125 L 347.554688 613.503906 L 346.183594 610.257812 L 344.308594 608.039062 L 342.433594 600.015625 L 341.925781 593.523438 L 340.050781 591.8125 L 337.328125 589.9375 L 334.945312 587.71875 L 333.917969 587.210938 L 330.511719 584.992188 L 326.761719 584.652344 L 324.378906 586.347656 L 322.503906 588.058594 L 319.4375 589.9375 L 316.878906 591.648438 L 314.839844 592.496094 L 312.113281 592.839844 L 308.871094 594.210938 L 305.121094 595.921875 L 302.558594 597.113281 L 300.683594 599.332031 C 300.683594 599.332031 292.320312 600.699219 290.785156 599.492188 C 289.253906 598.304688 287.199219 597.113281 287.199219 597.113281 L 284.816406 595.578125 L 281.914062 593.019531 L 278.847656 592.332031 L 277.480469 590.964844 L 274.578125 589.25 C 274.578125 589.25 272.703125 588.058594 271.855469 587.882812 C 271.003906 587.71875 267.253906 588.730469 267.253906 588.730469 L 264.875 590.785156 L 261.628906 590.949219 C 261.628906 590.949219 260.097656 591.976562 259.917969 592.660156 C 259.753906 593.34375 259.070312 596.25 259.070312 596.753906 C 259.070312 597.261719 257.355469 603.410156 257.878906 603.75 C 258.382812 604.09375 259.246094 605.449219 259.246094 605.449219 C 259.246094 605.449219 257.878906 607.503906 257.878906 608.011719 C 257.878906 608.515625 257.03125 611.417969 257.03125 611.417969 L 254.128906 613.636719 L 252.25 614.828125 L 247.996094 615.335938 L 244.929688 615.839844 L 242.890625 616.867188 L 242.890625 618.402344 C 242.890625 618.402344 238.453125 618.742188 237.769531 618.742188 C 237.085938 618.742188 228.734375 618.90625 228.734375 618.90625 L 226.679688 619.933594 L 224.300781 622.152344 L 224.300781 624.535156 L 221.054688 625.054688 L 219.523438 626.425781 L 218.835938 627.453125 L 216.785156 629.164062 L 215.59375 630.191406 L 213.71875 632.246094 L 212.183594 633.78125 L 209.96875 634.808594 L 208.253906 637.027344 L 208.253906 639.75 L 207.570312 645.554688 L 208.941406 648.117188 C 208.941406 648.117188 210.128906 650.171875 209.96875 651.019531 C 209.804688 651.867188 208.597656 652.894531 206.558594 652.894531 C 204.519531 652.894531 202.464844 654.265625 202.464844 654.265625 L 200.085938 656.484375 L 197.867188 659.730469 L 196.15625 661.441406 L 194.964844 664.164062 L 194.117188 667.230469 L 188.996094 666.890625 L 183.191406 667.394531 L 180.289062 667.902344 L 178.917969 669.777344 L 177.890625 671.488281 L 176.867188 673.203125 L 175.675781 674.394531 L 173.292969 674.230469 L 170.910156 673.203125 L 168.53125 672.695312 L 168.53125 674.230469 L 165.121094 674.050781 L 162.90625 672.175781 L 162.054688 671.148438 L 158.46875 670.300781 L 155.746094 670.804688 L 154.210938 669.109375 L 153.363281 668.082031 C 153.363281 668.082031 150.804688 667.738281 150.296875 667.394531 C 149.792969 667.054688 143.136719 667.558594 143.136719 667.558594 L 140.414062 668.066406 L 137.171875 667.21875 L 134.953125 667.722656 L 132.734375 670.285156 C 132.734375 670.285156 131.886719 671.476562 130.175781 671.3125 C 128.464844 671.148438 124.710938 670.96875 124.710938 670.96875 L 122.496094 668.246094 L 119.933594 666.546875 L 119.933594 663.480469 L 119.085938 659.890625 L 119.085938 653.058594 L 117.554688 652.210938 L 115.839844 650.335938 L 114.128906 649.144531 L 112.253906 647.773438 L 109.695312 647.609375 L 102.015625 646.761719 L 99.960938 645.050781 L 96.894531 644.886719 L 96.894531 643.695312 L 95.703125 642.324219 L 95.703125 640.957031 L 90.167969 641.296875 L 90.167969 637.5625 L 91.878906 637.054688 L 93.070312 635.34375 L 94.097656 632.945312 L 94.273438 630.726562 L 95.972656 629.015625 L 95.972656 626.113281 L 97.503906 624.578125 L 97.847656 623.046875 L 98.875 621.171875 L 97 620.484375 L 95.628906 619.800781 L 94.097656 618.609375 L 93.410156 614.335938 L 94.050781 608.367188 L 96.359375 605.808594 L 97 603.113281 L 98.664062 600.804688 L 104.292969 599.65625 L 105.066406 596.457031 L 107.371094 594.671875 L 108.652344 591.335938 L 109.292969 589.027344 L 111.601562 588.136719 C 111.601562 588.136719 112.105469 586.46875 112.625 586.09375 C 113.132812 585.707031 114.679688 584.5625 114.800781 584.175781 C 114.933594 583.789062 115.945312 581.109375 115.945312 580.722656 C 115.945312 580.335938 115.945312 568.304688 115.945312 568.304688 L 117.613281 566.132812 L 118.757812 564.09375 C 118.757812 564.09375 119.652344 560.503906 119.652344 559.863281 C 119.652344 559.222656 119.398438 548.339844 119.398438 548.339844 C 119.398438 548.339844 121.453125 545.140625 121.957031 545.140625 C 122.464844 545.140625 125.277344 544.886719 125.277344 544.886719 L 131.039062 544.5 L 133.09375 544.753906 C 133.09375 544.753906 136.796875 543.980469 137.183594 543.980469 C 137.570312 543.980469 144.226562 544.113281 144.226562 544.484375 C 144.226562 544.871094 145.625 546.40625 145.890625 546.792969 C 146.144531 547.179688 147.304688 549.605469 147.304688 549.605469 L 149.730469 550.113281 L 152.425781 551.007812 L 156.652344 552.03125 L 159.347656 553.179688 C 159.347656 553.179688 163.574219 553.179688 163.574219 553.820312 C 163.574219 554.460938 167.667969 557.527344 167.667969 557.527344 L 172.011719 560.085938 L 174.574219 560.726562 L 178.160156 562.007812 L 184.558594 562.902344 L 187.507812 564.046875 L 190.574219 565.582031 L 195.171875 566.726562 L 198.757812 569.675781 L 202.210938 570.566406 L 206.945312 571.460938 L 209.253906 568.765625 L 210.785156 565.820312 L 211.039062 563.390625 C 211.039062 563.390625 212.707031 562.5 212.707031 562.113281 C 212.707031 561.726562 212.839844 557.242188 212.839844 557.242188 L 213.984375 555.457031 L 215.398438 552.644531 L 216.679688 550.46875 L 218.988281 546.242188 C 218.988281 546.242188 220.773438 544.457031 220.773438 544.066406 C 220.773438 543.679688 221.414062 542.015625 221.414062 542.015625 L 220.90625 538.558594 L 223.078125 535.746094 L 222.574219 530.371094 L 220.519531 530.117188 L 219.878906 527.691406 L 216.8125 525.132812 L 216.425781 520.648438 C 216.425781 520.648438 214.371094 518.984375 214.640625 518.34375 C 214.894531 517.703125 214.773438 515.78125 215.414062 515.664062 C 216.054688 515.527344 215.921875 511.957031 215.921875 511.957031 L 214.894531 509.007812 L 214.253906 506.195312 L 211.304688 505.421875 L 209 503.5 L 206.574219 501.578125 L 204.402344 498.765625 L 201.839844 497.871094 C 201.839844 497.871094 200.949219 495.953125 200.425781 495.816406 C 199.921875 495.683594 197.226562 494.671875 197.226562 494.671875 C 197.226562 494.671875 196.082031 491.21875 196.453125 490.710938 C 196.839844 490.207031 197.867188 486.109375 197.867188 486.109375 L 198.253906 482.269531 C 198.253906 482.269531 199.027344 480.214844 200.308594 480.214844 C 201.585938 480.214844 206.574219 480.722656 206.574219 480.722656 C 206.574219 480.722656 207.851562 481.496094 210.28125 481.496094 C 212.707031 481.496094 217.320312 485.976562 218.078125 486.738281 C 218.851562 487.511719 225.238281 488.789062 226.011719 489.296875 C 226.785156 489.804688 230.878906 490.832031 230.878906 490.832031 L 230.878906 485.710938 L 232.160156 478.28125 L 231.5625 472.742188 L 233.097656 473.515625 C 233.097656 473.515625 233.347656 475.304688 234.125 475.304688 C 234.882812 475.304688 238.46875 475.304688 238.46875 475.304688 C 238.46875 475.304688 238.214844 477.609375 238.722656 478.621094 C 239.230469 479.648438 243.320312 483.222656 243.320312 483.222656 C 243.320312 483.222656 246.179688 486.378906 247.9375 485.695312 L 251 484.503906 L 251 481.257812 L 253.5625 480.410156 L 259.871094 480.410156 L 265.675781 479.039062 L 268.921875 476.316406 C 268.921875 476.316406 270.292969 470.34375 270.292969 469.839844 C 270.292969 469.332031 270.292969 466.085938 270.292969 466.085938 C 270.292969 466.085938 274.21875 464.894531 274.726562 465.238281 C 275.234375 465.582031 281.542969 465.179688 281.542969 465.179688 L 286.140625 465.179688 L 286.992188 462.171875 L 292.796875 462.171875 L 295.011719 460.800781 L 297.914062 460.800781 L 301.160156 458.242188 C 301.160156 458.242188 299.285156 455.859375 300.132812 454.328125 C 300.980469 452.792969 302.691406 451.082031 302.691406 451.082031 L 306.445312 449.203125 L 307.8125 445.960938 L 308.839844 441.867188 L 310.375 438.277344 C 310.375 438.277344 311.742188 438.960938 312.425781 439.125 C 313.113281 439.304688 313.453125 441.003906 313.617188 441.6875 C 313.78125 442.371094 313.617188 445.097656 313.617188 445.097656 L 311.5625 448 L 311.398438 449.191406 L 313.691406 451.066406 L 315.835938 448 L 317.367188 444.753906 L 316 443.382812 L 315.316406 439.453125 L 317.367188 436.894531 L 331.34375 436.894531 L 332.371094 434.332031 L 334.410156 433.140625 L 343.117188 433.140625 L 343.964844 435.867188 L 346.691406 436.03125 L 347.539062 433.125 L 350.945312 431.933594 L 351.972656 431.25 L 351.972656 428.183594 L 350.097656 426.144531 L 351.972656 424.773438 L 353.507812 421.707031 L 350.605469 419.996094 L 348.894531 414.875 L 351.957031 410.4375 L 349.054688 406 L 347.867188 400.195312 L 349.742188 395.582031 L 351.453125 389.105469 L 353.492188 387.390625 L 355.367188 382.105469 L 358.089844 379.890625 L 365.59375 379.890625 L 367.808594 376.644531 L 370.371094 374.246094 L 374.804688 373.398438 L 375.488281 376.464844 L 374.804688 381.585938 L 372.765625 383.460938 L 371.574219 385.679688 L 371.753906 390.621094 L 376.53125 391.992188 L 376.53125 396.085938 L 374.820312 398.648438 L 369.535156 398.648438 L 369.195312 402.054688 L 368.851562 404.960938 L 364.417969 407.519531 L 362.199219 409.230469 L 360.664062 416.394531 L 361.855469 418.433594 L 364.074219 421.679688 L 363.894531 424.238281 L 367.140625 425.773438 L 369.179688 427.304688 L 372.929688 429.523438 L 372.585938 433.617188 L 376.515625 434.300781 L 376.515625 433.113281 L 383.171875 432.085938 L 384.359375 429.523438 L 388.113281 428.152344 L 392.039062 429.523438 C 392.039062 429.523438 393.753906 424.921875 394.765625 425.25 C 395.792969 425.59375 397.324219 428.316406 397.324219 428.316406 L 396.476562 430.878906 L 395.96875 433.78125 L 400.570312 435.492188 L 402.609375 437.546875 L 407.550781 436.863281 L 414.203125 433.960938 L 417.789062 432.933594 L 420.351562 431.234375 L 423.757812 428.332031 L 428.015625 426.800781 C 428.015625 426.800781 430.738281 424.921875 432.613281 424.757812 C 434.488281 424.597656 439.953125 424.921875 440.457031 424.921875 C 440.964844 424.921875 441.144531 427.304688 441.828125 427.992188 C 442.511719 428.675781 444.207031 432.085938 444.730469 432.085938 C 445.25 432.085938 450.699219 432.933594 451.382812 432.25 C 452.066406 431.5625 454.105469 427.648438 455.132812 426.441406 C 456.160156 425.25 459.226562 424.222656 459.226562 424.222656 C 459.226562 424.222656 464.6875 423.882812 465.03125 423.195312 C 465.375 422.511719 465.03125 412.789062 465.03125 412.789062 C 465.03125 412.789062 463.5 409.886719 463.15625 409.039062 C 462.8125 408.191406 462.128906 406.136719 462.308594 404.765625 C 462.484375 403.394531 462.308594 394.523438 462.308594 394.523438 L 465.195312 392.125 L 465.195312 387.347656 L 466.921875 383.9375 L 469.988281 381.035156 L 472.710938 379.160156 L 477.488281 378.652344 C 477.488281 378.652344 477.652344 380.363281 478.679688 381.214844 C 479.707031 382.0625 482.089844 385.472656 482.089844 385.472656 L 484.304688 388.878906 L 488.234375 389.042969 L 491.300781 386.988281 L 491.300781 370.957031 L 488.398438 369.929688 L 485.839844 368.394531 L 483.964844 364.988281 L 481.582031 361.234375 L 480.210938 357.484375 C 480.210938 357.484375 481.238281 354.921875 481.746094 354.757812 C 482.25 354.59375 485.675781 351.691406 485.675781 351.691406 L 488.398438 350.84375 L 491.300781 348.789062 L 495.230469 347.417969 L 497.105469 346.570312 L 509.222656 346.570312 L 515.367188 348.445312 L 517.585938 346.570312 L 519.460938 343.324219 L 521.84375 341.449219 L 523.554688 339.574219 L 527.304688 338.546875 L 533.957031 338.546875 L 535.148438 336.328125 L 533.617188 334.617188 L 531.902344 333.425781 L 524.058594 332.578125 L 520.816406 331.550781 L 521.15625 329.332031 L 519.625 328.480469 L 516.039062 330.359375 C 516.039062 330.359375 514.328125 330.699219 513.820312 330.863281 C 513.3125 331.042969 510.574219 332.054688 510.574219 332.054688 L 508.015625 332.234375 L 506.304688 334.109375 L 502.03125 335.136719 L 498.625 335.644531 L 497.777344 336.835938 L 495.722656 339.214844 L 492.3125 339.394531 L 492.3125 340.765625 L 489.753906 341.613281 L 485.316406 343.144531 L 479.511719 343.144531 L 477.636719 342.121094 L 475.257812 340.066406 C 475.257812 340.066406 473.722656 338.695312 473.21875 337.683594 C 472.710938 336.65625 469.972656 335.300781 469.972656 335.464844 C 469.972656 335.644531 467.25 334.109375 467.25 334.109375 L 464.867188 333.929688 L 465.375 326.25 L 465.714844 322.496094 L 465.375 319.089844 L 465.714844 313.625 L 463.15625 310.898438 L 462.128906 307.148438 L 461.964844 303.398438 C 461.964844 303.398438 462.308594 296.5625 461.964844 296.058594 C 461.621094 295.550781 462.992188 293.496094 462.992188 293.496094 C 462.992188 293.496094 460.953125 291.441406 461.28125 290.429688 C 461.621094 289.402344 463.15625 289.402344 463.15625 289.402344 L 467.25 290.085938 L 469.972656 287.867188 L 470.820312 284.117188 L 473.21875 282.078125 L 475.433594 278.328125 L 477.832031 277.640625 L 480.390625 273.042969 L 481.582031 269.972656 L 482.9375 267.757812 L 484.128906 265.03125 L 485.316406 262.992188 C 485.316406 262.992188 484.8125 258.554688 485.496094 258.71875 C 486.179688 258.882812 489.425781 258.71875 489.425781 258.71875 L 489.589844 255.308594 L 488.5625 253.253906 L 487.535156 251.039062 L 485.480469 249.667969 L 482.578125 248.640625 C 482.578125 248.640625 480.703125 249.667969 480.019531 250.011719 C 479.335938 250.351562 476.953125 251.039062 476.953125 251.039062 L 473.707031 250.53125 L 470.984375 248.65625 C 470.984375 248.65625 470.640625 250.367188 469.957031 251.214844 C 469.273438 252.066406 468.425781 253.777344 468.425781 253.777344 L 466.714844 255.832031 L 466.207031 258.734375 C 466.207031 258.734375 463.824219 259.417969 463.988281 260.105469 C 464.152344 260.789062 463.8125 267.445312 463.8125 267.445312 L 466.027344 270.167969 C 466.027344 270.167969 465.863281 271.539062 465.34375 272.222656 C 464.835938 272.90625 462.785156 274.261719 462.785156 274.261719 L 461.757812 276.136719 L 460.566406 278.699219 L 459.03125 282.628906 L 456.816406 283.820312 L 454.761719 285.695312 L 452.039062 286.378906 L 450.160156 288.941406 L 448.792969 290.3125 L 446.917969 291.160156 L 445.382812 293.542969 L 444.015625 295.597656 L 443.167969 298.15625 L 441.632812 301.566406 L 440.101562 302.757812 L 438.730469 305.136719 L 438.046875 308.726562 L 436.171875 311.792969 L 435.828125 316.394531 L 434.800781 319.980469 L 435.144531 330.730469 L 438.210938 332.101562 L 441.960938 335.6875 L 443.65625 338.25 L 445.191406 339.960938 C 445.191406 339.960938 447.410156 341.835938 447.574219 343.027344 C 447.734375 344.21875 446.886719 348.65625 446.886719 348.65625 L 443.480469 349.847656 L 442.792969 351.898438 L 443.984375 355.996094 C 443.984375 355.996094 441.425781 357.183594 440.578125 357.363281 C 439.730469 357.527344 438.523438 360.429688 438.015625 360.429688 C 437.511719 360.429688 434.609375 361.964844 434.609375 361.964844 L 432.226562 362.992188 L 430.515625 365.550781 L 429.667969 367.175781 L 428.640625 376.480469 L 428.296875 380.230469 L 426.257812 384.667969 L 425.230469 390.636719 L 427.613281 388.582031 C 427.613281 388.582031 429.144531 386.199219 429.667969 386.707031 C 430.171875 387.214844 429.324219 391.144531 429.160156 391.648438 C 428.996094 392.15625 428.476562 394.554688 427.96875 395.582031 C 427.464844 396.609375 426.945312 398.648438 426.945312 398.648438 L 425.410156 401.371094 L 424.042969 402.90625 L 421.988281 402.21875 L 418.921875 403.070312 L 409.886719 403.070312 L 408.175781 404.257812 L 406.464844 405.628906 L 405.4375 408.011719 C 405.4375 408.011719 405.941406 412.105469 405.09375 412.953125 C 404.246094 413.800781 399.972656 414.324219 399.972656 414.324219 L 391.445312 413.816406 L 391.445312 403.753906 L 389.570312 400.507812 L 391.445312 397.097656 L 392.976562 394.359375 L 389.734375 389.757812 L 388.023438 386.351562 L 387.335938 383.105469 C 387.335938 383.105469 385.625 379.859375 385.460938 379.351562 C 385.296875 378.847656 383.75 374.574219 384.269531 374.410156 C 384.777344 374.230469 385.121094 371.34375 385.121094 371.34375 C 385.121094 371.34375 384.269531 368.78125 384.269531 368.277344 C 384.269531 367.769531 383.378906 364.734375 383.378906 364.734375 L 382.53125 360.804688 L 380.65625 357.898438 L 382.367188 355.519531 L 381.859375 352.273438 L 379.984375 350.738281 L 379.644531 347.671875 L 377.589844 348.699219 L 376.21875 352.628906 L 373.660156 353.65625 L 370.9375 354.847656 L 369.402344 357.066406 C 369.402344 357.066406 369.402344 356.722656 368.554688 357.230469 C 367.707031 357.734375 367.019531 358.941406 366.515625 358.941406 C 366.007812 358.941406 363.792969 360.476562 363.792969 360.476562 L 362.257812 362.515625 L 360.203125 363.363281 L 358.328125 364.734375 L 343.832031 364.046875 L 342.640625 360.640625 L 340.765625 358.761719 L 338.042969 356.722656 L 336.671875 354.667969 L 335.644531 346.824219 L 339.054688 344.769531 L 341.777344 342.207031 L 336.65625 341.179688 L 335.632812 337.773438 L 335.972656 333.515625 L 339.21875 332.664062 L 337.683594 327.039062 L 337.164062 321.410156 L 338.355469 315.945312 L 339.546875 314.757812 L 338.859375 310.484375 L 340.914062 309.113281 L 341.09375 304.511719 L 342.285156 300.582031 L 345.007812 296.832031 L 347.910156 295.121094 L 353.535156 293.75 L 355.410156 290.160156 L 357.628906 290.160156 L 358.65625 287.09375 L 361.039062 285.902344 L 364.625 284.535156 L 366.84375 282.824219 L 368.882812 279.234375 L 371.785156 282.480469 L 374.164062 275.660156 L 377.410156 274.632812 C 377.410156 274.632812 379.121094 276.347656 379.628906 276.851562 C 380.132812 277.359375 381.324219 278.566406 382.007812 278.566406 C 382.695312 278.566406 385.074219 272.253906 385.074219 272.253906 L 389.6875 267.980469 L 389.851562 265.597656 L 392.753906 263.722656 L 395.316406 261.160156 L 392.753906 260.132812 L 391.566406 257.574219 L 394.46875 257.066406 L 396.683594 257.75 L 401.460938 256.382812 L 402.3125 252.289062 L 402.3125 249.5625 L 401.460938 247.523438 L 404.1875 247.523438 L 405.71875 245.8125 L 405.375 243.25 C 405.375 243.25 406.0625 240.871094 407.089844 240.691406 C 408.117188 240.527344 409.8125 239.5 409.8125 239.5 L 410.496094 234.898438 L 413.21875 231.652344 L 415.097656 228.410156 L 417.476562 226.191406 L 420.378906 224.316406 L 422.761719 221.410156 L 424.636719 219.03125 L 423.445312 214.25 L 426.003906 214.25 L 427.195312 211.867188 L 426.855469 208.621094 L 423.265625 209.8125 L 420.707031 210.15625 C 420.707031 210.15625 416.957031 211.527344 416.449219 212.03125 C 415.945312 212.554688 413.207031 214.25 413.207031 214.25 C 413.207031 214.25 409.617188 213.058594 410.480469 212.195312 C 411.332031 211.347656 412.699219 210.320312 413.207031 210.15625 C 413.710938 209.992188 416.957031 208.621094 416.957031 208.621094 C 416.957031 208.621094 418.148438 207.089844 418.667969 206.910156 C 419.175781 206.746094 423.265625 207.089844 423.265625 206.226562 C 423.265625 205.378906 421.226562 201.789062 421.226562 201.789062 L 423.265625 200.078125 L 425.828125 198.542969 L 427.703125 196.488281 L 429.578125 194.957031 L 431.960938 192.054688 L 432.300781 195.296875 L 434.863281 197.515625 L 436.050781 196.832031 L 436.394531 192.054688 L 437.925781 190 L 439.980469 189.148438 L 443.046875 189.148438 L 443.894531 185.90625 L 445.429688 183.179688 L 446.621094 180.960938 L 449.523438 179.769531 L 451.738281 178.742188 L 457.203125 179.59375 L 459.421875 180.960938 L 460.789062 178.742188 L 464.539062 177.210938 L 466.074219 175.675781 L 463.855469 172.773438 L 465.386719 171.078125 L 467.605469 169.199219 C 467.605469 169.199219 470.671875 169.886719 471.191406 169.886719 C 471.699219 169.886719 475.285156 169.199219 475.285156 169.199219 L 474.4375 165.449219 L 477.503906 165.449219 L 480.75 164.078125 L 480.585938 162.367188 L 477.859375 161.519531 L 477.683594 154.015625 L 481.433594 152.304688 C 481.433594 152.304688 484.679688 151.617188 486.210938 152.304688 C 487.742188 152.988281 490.644531 155.710938 490.644531 156.21875 C 490.644531 156.726562 489.113281 159.628906 488.769531 160.148438 C 488.429688 160.65625 487.582031 162.203125 487.582031 163.050781 C 487.582031 163.902344 488.265625 165.433594 488.265625 165.433594 L 491.671875 163.558594 L 493.710938 162.367188 C 493.710938 162.367188 497.300781 161.683594 497.640625 162.367188 C 497.984375 163.050781 499.859375 165.777344 499.859375 165.777344 L 502.417969 166.28125 L 506.007812 166.96875 L 510.785156 169.691406 L 513.164062 174.128906 L 511.125 177.195312 L 508.566406 178.222656 L 508.222656 180.945312 L 514.027344 181.109375 L 519.492188 179.398438 L 521.871094 177.015625 L 524.773438 178.207031 L 527.839844 180.082031 L 528.527344 182.808594 L 530.90625 184.683594 L 532.960938 182.628906 L 535.195312 182.628906 L 539.628906 183.820312 L 543.378906 184.847656 L 548.5 185.355469 L 551.746094 187.410156 L 553.621094 187.570312 L 557.535156 190.132812 L 559.929688 191.324219 L 564.871094 193.035156 L 566.582031 193.542969 L 570.511719 194.734375 L 575.113281 196.429688 L 578.519531 198.140625 L 581.421875 201.210938 L 584.148438 204.277344 L 586.1875 207.519531 L 586.1875 213.996094 L 584.996094 218.433594 L 582.957031 220.144531 L 580.574219 221.859375 L 578.355469 225.265625 L 576.140625 226.980469 L 573.921875 228.691406 L 562.148438 228.691406 L 551.582031 227.664062 L 546.980469 225.28125 L 542.710938 225.625 C 542.710938 225.625 538.273438 224.433594 538.960938 227.15625 C 539.644531 229.882812 542.023438 230.226562 542.023438 230.226562 L 544.242188 231.921875 L 547.828125 232.605469 L 550.210938 234.644531 L 551.058594 238.578125 C 551.058594 238.578125 552.429688 243.863281 552.25 244.382812 C 552.085938 244.890625 552.933594 247.628906 552.933594 247.628906 L 554.125 249.339844 L 555.152344 251.378906 L 556.179688 254.96875 L 556.863281 256.84375 L 558.574219 258.539062 L 562.503906 259.730469 L 565.570312 260.582031 L 567.609375 261.085938 L 569.144531 262.277344 L 570.335938 263.648438 L 575.453125 264.332031 L 578.699219 262.277344 L 579.042969 260.058594 L 578.015625 257.335938 L 575.289062 257.171875 L 571.199219 255.460938 L 569.828125 254.269531 L 568.117188 252.390625 L 566.582031 251.542969 L 565.898438 250.175781 L 566.746094 246.929688 L 567.9375 245.394531 C 567.9375 245.394531 568.101562 243.863281 571.003906 244.890625 C 573.90625 245.917969 576.972656 246.601562 576.972656 246.601562 C 576.972656 246.601562 577.316406 245.917969 578.847656 246.09375 C 580.382812 246.273438 579.53125 246.78125 581.230469 247.285156 C 582.941406 247.792969 584.296875 248.3125 586.171875 248.3125 C 588.046875 248.3125 588.386719 247.808594 589.074219 247.285156 C 589.757812 246.78125 591.113281 246.257812 591.289062 245.066406 C 591.46875 243.875 592.480469 242.6875 591.289062 242.34375 C 590.101562 242 588.386719 240.808594 588.386719 240.808594 L 584.636719 237.90625 C 584.636719 237.90625 582.925781 236.03125 583.269531 235.003906 C 583.609375 233.976562 584.296875 229.71875 584.296875 229.71875 L 585.828125 227.84375 L 587.703125 225.625 L 591.113281 221.710938 L 592.644531 219.492188 L 592.644531 215.902344 C 592.644531 215.902344 593.152344 213.253906 593.492188 213 C 593.835938 212.746094 595.457031 212.492188 596.21875 212.65625 C 596.976562 212.820312 598.777344 212.746094 599.03125 212.746094 C 599.285156 212.746094 601.84375 213.164062 601.84375 213.164062 C 601.84375 213.164062 602.871094 214.355469 604.152344 214.445312 C 605.429688 214.535156 605.847656 214.621094 606.113281 214.355469 C 606.367188 214.101562 605.863281 211.972656 606.113281 211.378906 C 606.367188 210.78125 606.191406 206.507812 606.191406 206.507812 L 604.925781 204.632812 L 603.898438 203.011719 L 602.453125 201.3125 L 599.894531 201.058594 L 597.929688 199.78125 L 598.109375 195.773438 L 597.082031 192.707031 L 596.574219 190.652344 L 595.457031 189.285156 L 594.683594 186.722656 L 593.316406 185.785156 L 592.464844 182.882812 L 589.816406 182.199219 L 588.105469 180.664062 C 588.105469 180.664062 588.789062 178.355469 589.132812 178.355469 C 589.476562 178.355469 593.910156 178.105469 593.910156 178.105469 L 595.101562 177.003906 L 597.320312 176.914062 C 597.320312 176.914062 599.96875 177.003906 600.308594 177.003906 C 600.652344 177.003906 604.152344 177.089844 604.152344 177.089844 L 605.519531 177.089844 L 607.484375 179.308594 L 608.675781 179.996094 L 609.105469 181.023438 L 609.957031 182.210938 L 611.488281 182.71875 L 611.488281 186.382812 L 609.359375 187.230469 L 607.484375 189.449219 L 605.773438 191.667969 L 606.875 195.507812 L 609.523438 195.671875 L 610.804688 196.445312 L 612.589844 197.980469 L 614.210938 199.945312 L 617.113281 198.5 L 619.496094 197.5625 L 620.777344 195.9375 L 620.777344 186.292969 L 621.28125 183.730469 L 622.5625 181.945312 L 623.066406 179.5625 C 623.066406 179.5625 623.15625 178.371094 623.410156 178.28125 C 623.664062 178.191406 626.132812 177.089844 626.132812 177.089844 L 626.132812 174.277344 L 627.070312 171.804688 L 628.261719 170.527344 L 628.769531 169.15625 L 629.707031 168.382812 L 630.136719 164.628906 L 632.265625 163.097656 L 633.636719 160.445312 L 634.824219 159.332031 L 635.761719 156.085938 L 637.132812 153.957031 L 638.664062 151.945312 L 640.199219 149.429688 C 640.199219 149.429688 641.910156 148.835938 642.238281 148.492188 C 642.65625 148.222656 643.84375 147.035156 643.84375 147.035156 C 643.84375 147.035156 645.378906 147.539062 645.46875 148.402344 C 645.558594 149.25 644.871094 150.621094 644.707031 150.964844 C 644.546875 151.304688 644.457031 152.75 644.457031 152.75 C 644.457031 152.75 645.585938 154.121094 645.484375 154.535156 C 645.394531 154.953125 646.332031 156.578125 646.332031 156.578125 C 646.332031 156.578125 647.105469 159.390625 647.359375 159.390625 C 647.609375 159.390625 649.917969 158.707031 649.917969 158.707031 C 649.917969 158.707031 651.363281 157.425781 651.289062 156.992188 C 651.199219 156.5625 651.289062 154.34375 651.289062 154.34375 L 652.566406 151.960938 L 653 150.175781 L 654.441406 147.449219 C 654.441406 147.449219 661.601562 145.425781 661.871094 145.425781 C 662.121094 145.425781 666.214844 145.425781 666.214844 145.425781 C 666.214844 145.425781 673.71875 145.425781 673.554688 145.425781 C 673.375 145.425781 677.558594 145.828125 677.558594 145.828125 L 679.671875 145.441406 L 684.867188 145.441406 C 684.867188 145.441406 689.730469 145.441406 690.238281 145.441406 C 690.746094 145.441406 694.242188 145.441406 694.242188 145.441406 L 700.894531 145.441406 C 700.894531 145.441406 703.203125 146.09375 703.457031 146.347656 C 703.707031 146.601562 704.644531 148.730469 704.644531 149.074219 C 704.644531 149.414062 706.089844 151.039062 706.089844 151.039062 L 707.535156 152.570312 C 707.535156 152.570312 708.8125 154.449219 708.8125 154.699219 C 708.8125 154.953125 710.183594 156.578125 710.183594 156.578125 L 710.777344 158.707031 L 711.625 159.480469 L 712.652344 162.472656 L 712.652344 176.808594 L 711.375 179.28125 L 711.121094 183.464844 L 711.714844 186.621094 L 712.058594 188.75 L 712.652344 191.128906 L 714.1875 192.917969 L 715.972656 194.628906 L 718.355469 196.757812 L 718.695312 197.785156 L 720.570312 199.660156 L 722.953125 201.371094 L 723.636719 204.363281 L 723.636719 208.621094 L 725.601562 212.96875 C 725.601562 212.96875 726.539062 215.097656 727.046875 215.1875 C 727.566406 215.277344 729.265625 216.632812 729.515625 216.8125 C 729.769531 216.976562 731.140625 217.925781 731.480469 218.777344 C 731.824219 219.625 732.078125 219.625 733.015625 220.652344 C 733.953125 221.679688 734.800781 223.898438 734.800781 223.898438 L 737.183594 226.710938 L 738.804688 228.421875 L 740.085938 230.046875 L 742.300781 231.667969 L 742.734375 234.484375 L 743.417969 236.613281 L 743.417969 239.515625 C 743.417969 239.515625 745.636719 241.046875 745.726562 241.480469 C 745.816406 241.910156 747.167969 242.835938 747.167969 243.101562 C 747.167969 243.355469 747.601562 248.222656 747.675781 248.730469 C 747.765625 249.234375 747.332031 250.605469 747.675781 250.859375 C 748.015625 251.113281 751.335938 251.453125 751.335938 251.453125 L 753.046875 253.925781 L 754.507812 254.863281 L 756.292969 253.925781 C 756.292969 253.925781 758.851562 254.433594 758.851562 254.699219 C 758.851562 254.953125 759.789062 257.261719 759.789062 257.261719 C 759.789062 257.261719 761.828125 258.882812 761.828125 259.136719 C 761.828125 259.390625 762.679688 263.230469 762.679688 263.230469 L 764.210938 265.195312 C 764.210938 265.195312 765.328125 268.785156 765.328125 269.035156 C 765.328125 269.289062 766.519531 271.164062 766.859375 271.253906 C 767.203125 271.34375 769.167969 272.953125 769.167969 273.21875 C 769.167969 273.472656 770.609375 275.4375 770.878906 275.601562 C 771.132812 275.765625 773.351562 276.539062 773.351562 276.539062 L 774.792969 279.011719 L 775.390625 281.394531 L 776.074219 281.898438 L 778.203125 283.089844 C 778.203125 283.089844 779.570312 285.5625 779.570312 285.816406 C 779.570312 286.066406 780.597656 287.527344 780.761719 287.855469 C 780.925781 288.195312 783.828125 291.351562 783.828125 291.695312 C 783.828125 292.039062 786.476562 293.660156 786.476562 293.660156 L 787.503906 295.03125 L 789.214844 297.5 L 790.925781 299.464844 L 793.742188 301.9375 L 796.046875 305.347656 C 796.046875 305.347656 797.832031 306.96875 797.921875 307.222656 C 798.011719 307.476562 798.355469 310.378906 798.355469 310.378906 L 800.734375 310.46875 C 800.734375 310.46875 801.496094 313.371094 801.496094 313.714844 C 801.496094 314.054688 801.585938 319.175781 801.496094 319.429688 C 801.40625 319.683594 801.925781 335.210938 801.925781 335.210938 L 805.171875 338.53125 L 805.589844 340.496094 L 806.957031 342.804688 L 807.804688 344.589844 L 809.085938 346.898438 L 810.53125 351.15625 L 811.808594 353.539062 C 811.808594 353.539062 812.496094 357.378906 812.910156 357.8125 C 813.34375 358.242188 815.472656 358.925781 815.902344 359.433594 C 816.335938 359.941406 816.75 363.871094 816.839844 364.464844 C 816.929688 365.0625 818.210938 367.875 818.285156 368.128906 C 818.375 368.378906 819.5625 369.40625 819.816406 370.003906 C 820.070312 370.597656 820.589844 372.386719 820.589844 373.160156 C 820.589844 373.933594 820.679688 375.289062 821.363281 375.71875 C 822.050781 376.152344 823.328125 376.40625 823.671875 377.507812 C 824.015625 378.625 824.773438 379.976562 823.671875 380.15625 C 822.554688 380.320312 820.679688 380.589844 820.679688 381.257812 C 820.679688 381.941406 820.261719 383.386719 819.996094 383.566406 C 819.742188 383.730469 818.121094 386.214844 817.867188 386.46875 C 817.613281 386.722656 815.398438 386.976562 814.710938 387.570312 C 814.027344 388.167969 810.367188 388.417969 808.996094 388.167969 C 807.628906 387.914062 803.460938 389.195312 802.34375 388.003906 C 801.226562 386.8125 800.972656 385.875 801.226562 384.667969 C 801.480469 383.476562 801.480469 380.484375 801.480469 380.484375 L 795.167969 380.394531 C 795.167969 380.394531 791.761719 379.890625 791.761719 380.230469 C 791.761719 380.574219 791.761719 383.296875 791.761719 383.296875 C 791.761719 383.296875 793.800781 383.984375 794.140625 384.070312 C 794.484375 384.160156 796.359375 384.578125 796.523438 384.921875 C 796.703125 385.261719 795.839844 388.582031 795.585938 388.761719 C 795.332031 388.941406 794.394531 389.878906 793.457031 390.472656 C 792.519531 391.070312 789.113281 391.84375 788.335938 391.664062 C 787.578125 391.5 786.640625 391.664062 786.640625 391.664062 C 786.640625 391.664062 785.613281 393.972656 785.359375 393.972656 Z M 235.285156 340.035156 L 232.722656 342.847656 L 231.308594 346.050781 L 229.390625 347.71875 L 230.671875 350.785156 L 228.246094 352.449219 L 226.832031 355.265625 L 229.003906 356.796875 C 229.003906 356.796875 228.230469 359.105469 227.855469 359.359375 C 227.46875 359.613281 229.003906 361.144531 229.003906 361.144531 L 231.058594 361.917969 L 229.523438 363.707031 C 229.523438 363.707031 224.285156 364.597656 223.644531 364.597656 C 223.003906 364.597656 222.363281 365.625 222.113281 366.640625 C 221.859375 367.667969 226.710938 367.917969 226.710938 367.917969 C 226.710938 367.917969 228.632812 367.917969 229.136719 367.917969 C 229.644531 367.917969 229.390625 370.734375 229.390625 370.734375 C 229.390625 370.734375 227.46875 373.546875 226.710938 374.066406 C 225.9375 374.574219 225.683594 375.855469 225.816406 376.496094 C 225.953125 377.132812 229.269531 375.09375 229.019531 374.453125 C 228.765625 373.816406 231.832031 372.789062 231.832031 372.789062 L 233.246094 373.292969 L 235.640625 371.507812 L 237.085938 373.816406 L 235.640625 376.628906 L 233.5 378.683594 L 232.085938 380.855469 C 232.085938 380.855469 229.523438 382.390625 229.136719 382.523438 C 228.75 382.65625 228.109375 384.949219 228.109375 384.949219 L 228.496094 387.257812 L 231.308594 388.925781 C 231.308594 388.925781 234.761719 389.953125 235.152344 389.65625 C 235.539062 389.355469 237.53125 389.65625 237.53125 389.65625 C 237.53125 389.65625 240.941406 389.65625 241.460938 389.65625 C 241.96875 389.65625 241.28125 391.695312 240.957031 392.214844 C 240.613281 392.722656 239.585938 394.613281 239.585938 394.613281 C 239.585938 394.613281 239.929688 397.859375 240.269531 398.363281 C 240.613281 398.871094 241.117188 402.457031 241.117188 402.457031 L 242.832031 404.496094 L 241.117188 407.058594 L 240.433594 409.707031 L 237.53125 411.496094 C 237.53125 411.496094 233.097656 412.179688 232.589844 411.835938 C 232.085938 411.496094 230.03125 409.960938 229.347656 409.78125 C 228.660156 409.621094 226.445312 409.78125 226.445312 409.78125 L 223.71875 411.152344 L 224.746094 412.6875 L 221.679688 414.054688 C 221.679688 414.054688 220.488281 416.617188 220.652344 417.464844 C 220.816406 418.3125 224.746094 417.808594 225.253906 418.65625 C 225.757812 419.503906 225.417969 422.066406 225.417969 422.066406 C 225.417969 422.066406 223.882812 425.132812 223.378906 425.132812 C 222.871094 425.132812 221.664062 426.5 220.3125 426.5 C 218.941406 426.5 219.804688 427.527344 216.722656 427.691406 C 213.65625 427.855469 212.632812 428.035156 211.78125 428.378906 C 210.933594 428.71875 211.277344 430.9375 211.277344 433.320312 C 211.277344 435.703125 212.808594 435.539062 212.988281 436.222656 C 213.152344 436.90625 216.574219 436.222656 216.574219 436.222656 L 218.613281 437.414062 L 220.324219 439.289062 L 224.078125 440.136719 C 224.078125 440.136719 224.242188 442.699219 224.078125 443.367188 C 223.914062 444.039062 220.667969 443.546875 219.640625 443.382812 C 218.613281 443.21875 217.082031 444.410156 217.082031 444.410156 C 217.082031 444.410156 214.863281 445.601562 214.179688 445.945312 C 213.496094 446.285156 212.125 449.191406 212.125 449.191406 C 212.125 449.191406 209.90625 449.875 209.402344 450.382812 C 208.894531 450.886719 205.992188 451.410156 205.992188 451.410156 C 205.992188 451.410156 204.800781 451.914062 203.433594 452.597656 C 202.0625 453.285156 200.710938 453.625 200.710938 453.625 C 200.710938 453.625 198.148438 455.679688 198.148438 456.1875 C 198.148438 456.695312 199.519531 458.824219 199.519531 458.824219 L 202.761719 458.824219 C 202.761719 458.824219 204.816406 458.570312 205.144531 458.0625 C 205.488281 457.558594 208.210938 457.378906 208.210938 457.378906 L 210.769531 457.214844 L 213.332031 458.824219 L 215.042969 460.117188 C 215.042969 460.117188 217.261719 462.335938 217.765625 462.335938 C 218.273438 462.335938 219.300781 460.625 219.300781 460.625 L 221.175781 458.824219 L 222.023438 457.71875 C 222.023438 457.71875 223.734375 456.53125 223.898438 456.007812 C 224.0625 455.503906 227.308594 455.503906 227.308594 455.503906 L 228.675781 458.0625 L 228.675781 458.824219 L 230.046875 459.597656 L 232.769531 460.625 L 238.230469 460.625 L 240.957031 461.992188 L 244.542969 462.335938 L 246.921875 461.308594 L 251.179688 462.84375 C 251.179688 462.84375 252.714844 463.183594 253.234375 463.691406 C 253.742188 464.195312 258.011719 464.03125 258.519531 463.691406 C 259.023438 463.347656 265.8125 463.691406 265.8125 463.691406 L 267.390625 462.5 C 267.390625 462.5 270.292969 462.5 271.660156 462.5 C 273.03125 462.5 272.34375 461.128906 273.03125 459.597656 C 273.714844 458.0625 270.648438 456.871094 270.128906 456.871094 C 269.621094 456.871094 267.566406 456.53125 266.214844 455.84375 C 264.84375 455.160156 267.566406 453.625 267.566406 453.625 L 270.976562 451.246094 L 273.28125 449.191406 L 275.320312 448.042969 L 277.628906 445.347656 L 279.160156 444.203125 L 280.695312 442.535156 C 280.695312 442.535156 281.589844 439.46875 281.589844 439.082031 C 281.589844 438.695312 281.199219 436.015625 281.199219 435.375 C 281.199219 434.734375 279.535156 433.066406 279.414062 432.441406 C 279.28125 431.816406 276.601562 431.535156 276.601562 431.535156 C 276.601562 431.535156 273.28125 429.867188 273.148438 429.480469 C 273.015625 429.09375 269.441406 428.839844 269.441406 428.839844 L 269.191406 425.519531 L 269.964844 418.105469 L 268.9375 407.101562 L 267.65625 404.035156 C 267.65625 404.035156 265.230469 401.730469 264.84375 401.355469 C 264.457031 400.984375 263.058594 398.410156 263.058594 398.410156 C 263.058594 398.410156 262.804688 393.421875 262.804688 391.886719 C 262.804688 390.355469 264.859375 387.792969 264.859375 387.792969 L 264.21875 382.808594 L 261.152344 378.207031 C 261.152344 378.207031 257.953125 374.871094 257.832031 374.246094 C 257.699219 373.605469 258.21875 372.191406 258.21875 370.925781 C 258.21875 369.644531 260.007812 368.230469 260.007812 368.230469 C 260.007812 368.230469 261.671875 366.566406 262.820312 365.03125 C 263.964844 363.496094 264.992188 362.859375 265.378906 362.859375 C 265.765625 362.859375 266.273438 361.324219 266.273438 361.324219 C 266.273438 361.324219 268.445312 359.539062 268.832031 359.539062 C 269.21875 359.539062 271.140625 357.230469 271.78125 356.472656 C 272.417969 355.695312 271.78125 353.910156 271.644531 353.523438 C 271.527344 353.136719 270.367188 352.109375 268.578125 350.457031 C 266.792969 348.789062 266.273438 347.640625 266.273438 347.640625 C 266.273438 347.640625 262.3125 347.894531 261.792969 348.03125 C 261.285156 348.164062 258.085938 347.003906 257.3125 346.75 C 256.539062 346.496094 257.953125 345.214844 258.085938 344.828125 C 258.21875 344.441406 259.234375 342.789062 259.621094 342.269531 C 260.007812 341.761719 261.035156 340.988281 261.035156 340.988281 C 261.035156 340.988281 263.59375 339.707031 263.980469 339.574219 C 264.367188 339.441406 265.902344 339.1875 266.152344 338.800781 C 266.40625 338.414062 270.378906 338.546875 271.644531 338.414062 C 272.925781 338.277344 275.992188 337.636719 276.511719 337.132812 C 277.019531 336.625 280.21875 337.519531 283.164062 337.519531 C 286.113281 337.519531 283.804688 335.734375 283.804688 334.066406 C 283.804688 332.398438 284.058594 331.25 283.164062 330.476562 C 282.273438 329.703125 279.324219 329.703125 277.925781 329.449219 C 276.511719 329.195312 276.648438 328.421875 276.257812 327.394531 C 275.871094 326.367188 274.84375 324.96875 274.339844 324.328125 C 273.832031 323.6875 271.140625 323.046875 270.753906 323.046875 C 270.367188 323.046875 267.046875 324.460938 267.046875 324.460938 C 267.046875 324.460938 265.632812 327.277344 265.632812 327.917969 C 265.632812 328.558594 264.738281 330.609375 264.738281 330.609375 C 264.738281 330.609375 261.925781 331.25 260.511719 331.25 C 259.097656 331.25 257.058594 331.386719 255.390625 330.863281 C 253.726562 330.359375 253.085938 329.972656 252.964844 329.078125 C 252.832031 328.183594 254.753906 328.304688 254.753906 328.304688 C 254.753906 328.304688 257.445312 326.128906 257.179688 325.238281 C 256.925781 324.34375 255.511719 323.449219 255.390625 322.421875 C 255.257812 321.394531 253.21875 318.96875 253.21875 318.96875 C 253.21875 318.96875 248.488281 318.582031 246.699219 318.464844 C 244.914062 318.328125 243.632812 320.25 243.632812 320.25 L 244.660156 324.730469 L 246.195312 326.902344 L 250.289062 328.050781 L 249.527344 330.476562 C 249.527344 330.476562 247.355469 333.039062 247.101562 333.425781 C 246.847656 333.8125 243.78125 336.492188 243.78125 336.492188 C 243.78125 336.492188 241.476562 337.386719 239.691406 339.945312 Z M 232.886719 334.035156 C 232.769531 333.113281 234.628906 332.695312 234.914062 332.488281 C 235.195312 332.277344 236.429688 329.808594 236.625 329.078125 C 236.816406 328.347656 236.714844 327.007812 236.625 326.605469 C 236.535156 326.191406 234.824219 326.816406 232.886719 326.605469 C 230.953125 326.398438 233.199219 325.878906 233.394531 325.265625 C 233.585938 324.640625 234.539062 323.300781 235.777344 322.796875 C 237.011719 322.273438 236.25 320.53125 235.96875 320.117188 C 235.6875 319.699219 233.410156 319.191406 233.410156 319.191406 C 233.410156 319.191406 232.171875 321.054688 231.699219 321.15625 C 231.222656 321.261719 230.65625 323.019531 230.359375 323.332031 C 230.074219 323.644531 229.597656 324.984375 229.316406 325.402344 C 229.03125 325.816406 226.933594 327.574219 226.933594 327.574219 C 226.933594 327.574219 224.835938 329.644531 224.554688 329.644531 C 224.269531 329.644531 224.359375 331.398438 224.359375 331.398438 L 222.738281 333.46875 L 222.738281 335.019531 C 222.738281 335.019531 220.074219 338.011719 219.3125 338.53125 C 218.554688 339.050781 220.074219 340.183594 220.460938 340.703125 C 220.847656 341.226562 222.839844 340.289062 222.839844 340.289062 L 224.078125 339.664062 L 225.117188 341.003906 L 226.636719 339.558594 L 228.066406 338.53125 L 231.296875 336.253906 Z M 198.820312 172.03125 C 198.046875 171.003906 202.660156 169.214844 202.660156 169.214844 L 203.164062 163.839844 C 203.164062 163.839844 201.632812 159.746094 200.859375 158.972656 C 200.085938 158.199219 199.324219 157.1875 198.296875 157.1875 C 197.269531 157.1875 195.738281 159.496094 194.980469 159.242188 C 194.203125 158.988281 192.671875 157.1875 191.660156 157.1875 C 190.632812 157.1875 188.847656 158.71875 188.847656 158.71875 L 183.980469 162.054688 L 181.167969 163.839844 L 182.445312 165.121094 L 183.472656 168.710938 L 190.886719 168.710938 L 193.953125 172.042969 C 193.953125 172.042969 191.140625 173.324219 190.113281 173.324219 C 189.085938 173.324219 185.765625 174.605469 185.765625 174.605469 L 179.886719 173.578125 L 176.566406 172.042969 L 176.566406 175.886719 L 179.886719 177.925781 L 182.445312 179.457031 L 182.445312 182.019531 L 182.699219 186.886719 L 180.660156 188.671875 L 176.316406 187.898438 L 174.78125 190.714844 L 174.78125 193.527344 L 178.367188 193.527344 L 181.433594 197.875 L 183.996094 201.460938 L 183.996094 204.277344 L 186.300781 207.597656 L 190.410156 213.222656 L 194.25 215.007812 L 200.128906 215.007812 L 207.289062 213.730469 L 231.339844 213.730469 L 237.738281 208.355469 L 239.765625 205.019531 C 239.765625 205.019531 240.046875 199.394531 239.765625 198.367188 C 239.480469 197.339844 239.542969 191.203125 239.542969 191.203125 C 239.542969 191.203125 240.046875 186.335938 239.542969 185.578125 C 239.035156 184.804688 236.726562 180.203125 236.726562 180.203125 L 232.886719 176.644531 L 231.101562 180.707031 C 231.101562 180.707031 228.289062 181.988281 228.035156 180.707031 C 227.78125 179.429688 224.195312 180.707031 224.195312 180.707031 C 224.195312 180.707031 220.609375 178.65625 219.851562 178.148438 C 219.074219 177.640625 217.796875 175.335938 217.289062 174.558594 C 216.785156 173.785156 211.664062 173.28125 211.664062 173.28125 L 208.597656 172 L 203.476562 174.558594 L 201.421875 174.558594 C 201.378906 174.589844 199.59375 173.058594 198.820312 172.03125 Z M 213.40625 369.347656 L 202.152344 369.347656 L 200.367188 372.164062 L 196.273438 374.46875 L 196.273438 376.777344 L 199.339844 377.535156 L 198.148438 379.574219 L 193.207031 379.828125 L 189.367188 378.296875 L 184.5 375.988281 L 180.914062 378.550781 L 179.378906 382.894531 L 180.914062 385.457031 L 177.847656 386.988281 L 178.355469 391.203125 L 180.40625 393.644531 L 182.714844 397.097656 L 178.367188 399.777344 L 173.769531 401.832031 L 171.714844 404.140625 L 168.902344 404.394531 L 165.582031 408.234375 L 168.394531 409.007812 L 165.582031 411.316406 L 165.582031 414.128906 L 167.621094 417.464844 L 169.929688 420.277344 L 174.796875 422.066406 L 184.007812 422.066406 L 189.128906 420.785156 L 190.664062 419.25 L 198.164062 419 L 199.355469 422.066406 L 202.421875 422.066406 C 202.421875 422.066406 204.476562 418.222656 204.476562 417.195312 C 204.476562 416.167969 208.046875 415.15625 208.046875 415.15625 L 211.113281 411.570312 L 211.113281 407.726562 L 212.644531 404.660156 L 212.644531 396.980469 L 215.207031 395.191406 L 221.351562 392.378906 L 223.914062 388.285156 L 223.914062 376.257812 L 219.121094 374.46875 L 215.191406 372.164062 Z M 330.078125 636.011719 L 325.734375 633.972656 L 320.746094 635.253906 L 311.921875 635.253906 L 310.640625 637.039062 L 310.894531 641.386719 L 312.175781 644.453125 L 312.949219 649.574219 L 312.175781 653.417969 L 311.921875 658.792969 L 310.894531 662.632812 L 309.359375 666.472656 L 311.398438 668.511719 L 316.773438 670.300781 L 320.867188 668.765625 L 322.921875 667.230469 L 326.253906 667.230469 L 328.5625 663.390625 L 330.867188 658.269531 L 330.867188 650.082031 L 332.148438 646.242188 L 330.867188 638.828125 Z M 330.078125 627.304688 L 330.078125 622.449219 L 332.132812 619.636719 L 332.132812 614.261719 L 333.667969 610.675781 L 332.132812 607.085938 L 330.078125 607.085938 L 325.734375 609.902344 L 322.921875 611.957031 L 320.746094 613.488281 L 320.746094 626.039062 L 322.414062 629.359375 C 322.414062 629.359375 323.695312 630.132812 324.722656 630.890625 C 325.734375 631.667969 328.027344 629.613281 330.078125 627.304688 Z M 373.570312 703.824219 L 378.4375 707.414062 L 381.503906 707.414062 L 384.0625 711.253906 L 388.410156 714.84375 L 392.503906 714.84375 L 392.503906 711.523438 L 395.820312 709.347656 L 394.542969 706.148438 L 394.289062 702.054688 L 395.820312 698.214844 L 397.875 694.625 L 397.875 691.558594 L 395.316406 690.277344 L 389.941406 692.585938 L 385.714844 692.078125 L 380.730469 691.574219 L 375.609375 690.292969 L 373.554688 689.011719 L 368.433594 687.480469 L 366.902344 689.011719 L 364.59375 687.480469 L 360.503906 689.519531 L 360.503906 697.453125 L 366.382812 701.160156 L 371.25 703.335938 Z M 514.550781 739.152344 L 518.136719 740.941406 L 525.5625 740.941406 L 530.164062 740.046875 L 533.75 739.152344 L 538.097656 739.152344 L 540.402344 737.097656 L 540.402344 734.792969 L 534.003906 734.792969 L 534.777344 733.003906 L 529.910156 730.699219 L 522.496094 731.976562 L 517.125 730.699219 L 506.109375 730.699219 L 503.296875 734.019531 L 503.296875 738.617188 L 510.710938 738.363281 Z M 557.28125 719.441406 C 557.28125 719.441406 556.507812 721.75 557.28125 722.003906 C 558.054688 722.257812 558.8125 724.5625 558.8125 724.5625 L 561.121094 722.003906 L 562.90625 717.65625 L 562.90625 714.589844 L 559.914062 716.121094 Z M 548.828125 727.125 C 548.828125 727.125 546.789062 730.445312 546.535156 730.710938 C 546.28125 730.964844 548.066406 733.78125 548.066406 733.78125 L 551.132812 730.710938 L 551.132812 724.5625 Z M 536.296875 671.578125 L 534.507812 670.550781 L 529.390625 670.550781 L 529.390625 673.113281 L 531.441406 674.898438 L 533.480469 676.179688 L 536.296875 676.179688 Z M 521.84375 663.660156 L 521.84375 661.351562 L 520.445312 659.820312 L 518.65625 659.820312 L 517.628906 661.738281 L 521.859375 665.445312 L 521.859375 663.660156 Z M 531.117188 682.328125 L 531.117188 685.140625 L 529.390625 688.460938 L 532.84375 689.488281 L 532.84375 685.140625 Z M 543.453125 693.078125 L 541.414062 693.078125 L 540.386719 694.609375 L 539.359375 696.664062 L 543.453125 696.664062 Z M 387.128906 413.625 L 389.4375 410.304688 L 389.4375 403.648438 L 386.625 402.117188 L 381.117188 402.117188 L 377.664062 404.421875 L 375.625 403.144531 L 375.625 412.613281 L 376.902344 414.667969 L 381.503906 416.453125 L 381.503906 418.878906 L 384.316406 421.304688 L 386.625 416.4375 Z M 376.382812 418.863281 C 375.742188 418.476562 375.355469 418.359375 374.984375 418.359375 C 374.597656 418.359375 372.8125 418.359375 372.8125 418.359375 L 372.8125 420.414062 L 375.625 424.121094 L 377.542969 425.148438 L 379.96875 424.371094 L 379.96875 421.304688 L 377.542969 420.414062 C 377.542969 420.398438 377.023438 419.25 376.382812 418.863281 Z M 372.035156 410.289062 C 371.648438 410.15625 370.371094 407.863281 370.371094 406.953125 C 370.371094 406.0625 368.0625 406.953125 367.675781 406.953125 C 367.289062 406.953125 365.890625 408.367188 365.890625 408.367188 L 364.863281 411.703125 L 364.863281 413.742188 L 366.277344 415.78125 L 367.808594 418.34375 L 369.984375 420.128906 L 371.128906 419.101562 L 372.796875 416.675781 L 372.796875 412.714844 C 372.8125 412.714844 372.425781 410.421875 372.035156 410.289062 Z M 444.953125 376.167969 C 444.269531 376.507812 442.734375 378.207031 442.230469 378.550781 C 441.722656 378.890625 439.503906 381.957031 439.503906 381.957031 L 439.503906 388.269531 L 441.039062 390.652344 C 441.039062 390.652344 442.75 389.117188 443.433594 388.433594 C 444.121094 387.75 444.96875 384.847656 444.28125 383.820312 C 443.597656 382.792969 445.996094 379.21875 445.996094 379.21875 L 448.210938 376.152344 C 448.199219 376.167969 445.636719 375.824219 444.953125 376.167969 Z M 480.601562 368.828125 C 480.601562 368.828125 480.941406 366.445312 480.601562 365.417969 C 480.257812 364.390625 480.601562 364.046875 480.601562 364.046875 L 478.382812 364.046875 L 472.757812 365.238281 L 470.03125 367.457031 L 470.71875 372.074219 L 473.277344 373.605469 L 474.644531 372.238281 L 478.398438 369.167969 Z M 479.246094 360.980469 L 478.054688 358.421875 C 478.054688 358.421875 475.671875 357.050781 475.40625 356.886719 C 475.136719 356.722656 471.402344 358.257812 471.402344 358.257812 L 471.402344 360.816406 L 473.277344 361.84375 L 475.40625 363.214844 Z M 479.246094 360.980469 " fill-opacity="1" fill-rule="nonzero"/></g><path fill="#ffe700" d="M 415.722656 477.773438 L 418.488281 486.511719 L 427.65625 486.453125 L 420.199219 491.785156 L 423.089844 500.476562 L 415.722656 495.042969 L 408.339844 500.476562 L 411.226562 491.785156 L 403.785156 486.453125 L 412.953125 486.511719 Z M 440.875 458.464844 L 431.707031 458.40625 L 439.164062 463.734375 L 436.277344 472.429688 L 443.644531 466.996094 L 451.027344 472.429688 L 448.136719 463.734375 L 455.59375 458.40625 L 446.425781 458.464844 L 443.65625 449.726562 Z M 479.050781 448.414062 L 469.882812 448.355469 L 477.339844 453.6875 L 474.453125 462.378906 L 481.835938 456.945312 L 489.203125 462.378906 L 486.316406 453.6875 L 493.773438 448.355469 L 484.601562 448.414062 L 481.835938 439.675781 Z M 517.050781 458.570312 L 507.882812 458.507812 L 515.339844 463.839844 L 512.449219 472.535156 L 519.820312 467.101562 L 527.199219 472.535156 L 524.3125 463.839844 L 531.769531 458.507812 L 522.601562 458.570312 L 519.832031 449.832031 Z M 545.089844 486.410156 L 535.921875 486.347656 L 543.378906 491.679688 L 540.492188 500.375 L 547.875 494.9375 L 555.257812 500.375 L 552.371094 491.679688 L 559.828125 486.347656 L 550.65625 486.410156 L 547.890625 477.667969 Z M 555.242188 524.492188 L 546.074219 524.429688 L 553.53125 529.761719 L 550.644531 538.457031 L 558.011719 533.023438 L 565.394531 538.457031 L 562.503906 529.761719 L 569.960938 524.429688 L 560.792969 524.492188 L 558.027344 515.753906 Z M 544.882812 562.691406 L 535.714844 562.632812 L 543.171875 567.960938 L 540.285156 576.65625 L 547.667969 571.222656 L 555.046875 576.65625 L 552.160156 567.960938 L 559.617188 562.632812 L 550.449219 562.691406 L 547.679688 553.953125 Z M 517.15625 590.53125 L 507.984375 590.457031 L 515.441406 595.789062 L 512.554688 604.480469 L 519.9375 599.046875 L 527.304688 604.480469 L 524.417969 595.789062 L 531.875 590.457031 L 522.707031 590.53125 L 519.9375 581.792969 Z M 479.050781 600.789062 L 469.882812 600.730469 L 477.339844 606.058594 L 474.453125 614.753906 L 481.835938 609.320312 L 489.203125 614.753906 L 486.316406 606.058594 L 493.773438 600.730469 L 484.601562 600.789062 L 481.835938 592.050781 Z M 440.875 590.53125 L 431.707031 590.457031 L 439.164062 595.789062 L 436.277344 604.480469 L 443.644531 599.046875 L 451.027344 604.480469 L 448.136719 595.789062 L 455.59375 590.457031 L 446.425781 590.53125 L 443.65625 581.792969 Z M 412.953125 562.589844 L 403.785156 562.527344 L 411.226562 567.859375 L 408.339844 576.550781 L 415.722656 571.117188 L 423.089844 576.550781 L 420.199219 567.859375 L 427.65625 562.527344 L 418.488281 562.589844 L 415.722656 553.847656 Z M 402.800781 524.59375 L 393.632812 524.535156 L 401.089844 529.867188 L 398.203125 538.558594 L 405.585938 533.125 L 412.96875 538.558594 L 410.082031 529.867188 L 417.535156 524.535156 L 408.367188 524.59375 L 405.601562 515.855469 Z M 402.800781 524.59375 " fill-opacity="1" fill-rule="nonzero"/></svg>