<?xml version="1.0" encoding="UTF-8"?>
<svg id="Layer_1" xmlns="http://www.w3.org/2000/svg" xmlns:xlink="http://www.w3.org/1999/xlink" version="1.1" viewBox="0 0 220 50">
  <!-- Generator: Adobe Illustrator 29.3.1, SVG Export Plug-In . SVG Version: 2.1.0 Build 151)  -->
  <path d="M21.1,46.4h-3.6V9.9c0-5.7,1.6-7,8-7.4v-1H0v1c6.4.4,8,1.8,8,7.4v30.5c0,5.7-1.6,7-8,7.4v1h39.1v-20.2h-1c-1.8,15.8-7.9,17.8-17,17.8ZM50.5,11.2c2.6,0,5-2.2,5-5s-2.4-5-5-5c-2.8,0-5,2.2-5.1,5,0,2.8,2.2,5,5.1,5ZM175.6,42.4V0h-.2l-13.9,3.9v.9c4.5,0,5.9,1.4,5.9,4.6v33c0,4-.8,5-5.3,5.5v1h18.7v-1c-4.3-.5-5.1-1.4-5.1-5.5ZM54.5,42.4v-26.2h-.2l-13.9,3.9v.9c4.7,0,5.9,1.4,5.9,4.5v16.8c0,4-.9,5-5.3,5.5v1h18.7v-1c-4.2-.5-5.1-1.4-5.1-5.5h0Z"/>
  <path d="M146,15.7c-8,0-13.3,4.8-16.6,13l-1.4,3.5c-3,7.6-6.1,11-11.4,11s-10.2-4.7-10.2-13.7,2.8-12.2,8.2-12.2,7.7,4,9,9.7h.9v-9.6c-2.9-1.1-6-1.7-9.1-1.6-9.7,0-17.1,7.5-17.1,18.1s6,15.6,14.6,15.6,11.9-4.9,14.7-12l1.7-4.3c.7,10.5,7.2,16.4,16.6,16.4s16.7-6.8,16.7-16.9-6.9-16.9-16.7-16.9ZM146,48c-4.6,0-7.5-5.5-7.5-15.4s2.9-15.4,7.5-15.4,7.5,5.4,7.5,15.4-2.9,15.4-7.5,15.4ZM214.9,42.4v-15.6c0-7.4-4.1-10.9-9.3-10.9s-7.7,2-10.3,5.7v-5.4h-.2l-13.9,3.9v.9c4.4,0,5.9,1.2,5.9,4.5v16.9c0,4-.9,5-5.3,5.5v1h17.9v-1c-3.4-.5-4.4-1.4-4.4-5.5v-19.3c2.1-1.8,4.1-2.7,6.2-2.7,3.1,0,5.2,2.1,5.2,6.5v15.4c0,4-.9,5-4.3,5.5v1h17.6v-1c-4.1-.5-5.1-1.5-5.1-5.5ZM93.9,42.4v-15.6c0-7.4-4.1-10.9-9.3-10.9s-7.7,2-10.3,5.7v-5.4h-.2l-13.9,3.9v.9c4.4,0,5.8,1.2,5.8,4.5v16.9c0,4-.8,5-5.3,5.5v1h17.9v-1c-3.4-.5-4.4-1.4-4.4-5.5v-19.3c2.1-1.8,4.1-2.7,6.2-2.7,3.1,0,5.2,2.1,5.2,6.5v15.4c0,4-.9,5-4.3,5.5v1h17.6v-1c-4.1-.5-5.1-1.5-5.1-5.5Z"/>
</svg>