<?xml version="1.0" encoding="UTF-8"?> <svg xmlns="http://www.w3.org/2000/svg" id="Logo" viewBox="0 0 782.3 419.7"><defs><style> .cls-1 { fill: #f7941d; } </style></defs><g id="Tesi_oranssi"><rect class="cls-1" x="635.7" y="162.7" width="41.7" height="151.9"></rect><rect class="cls-1" x="635.7" y="104.9" width="41.7" height="38.8"></rect><path class="cls-1" d="M496.5,277.1c1.9,3.2,4.3,5.9,7.2,7.9,2.9,2.1,6.3,3.6,10.1,4.6,3.8,1,7.8,1.5,11.9,1.5s6-.3,9.3-1c3.2-.7,6.2-1.8,8.8-3.2,2.6-1.5,4.8-3.4,6.6-5.9,1.8-2.4,2.6-5.5,2.6-9.3,0-6.3-4.2-11-12.5-14.1-8.3-3.1-19.9-6.3-34.8-9.4-6.1-1.4-12-3-17.8-4.8-5.8-1.9-10.9-4.3-15.4-7.3-4.5-3-8.1-6.9-10.9-11.5-2.7-4.6-4.1-10.2-4.1-16.9,0-9.8,1.9-17.8,5.7-24.1,3.8-6.3,8.9-11.2,15.1-14.8,6.3-3.6,13.3-6.2,21.2-7.6,7.8-1.5,15.9-2.2,24.1-2.2s16.2,.8,24,2.4c7.7,1.6,14.6,4.2,20.7,7.9,6.1,3.7,11.1,8.7,15.1,14.8,4,6.2,6.4,14,7.2,23.4h-39.7c-.6-8-3.6-13.5-9.1-16.3-5.5-2.8-12-4.3-19.4-4.3s-4.9,.1-7.6,.4c-2.7,.3-5.2,.9-7.5,1.9-2.3,1-4.2,2.4-5.7,4.3-1.6,1.9-2.4,4.4-2.4,7.5s1.4,6.8,4.1,9.1c2.7,2.4,6.3,4.3,10.7,5.7,4.4,1.5,9.4,2.8,15.1,4,5.7,1.2,11.5,2.5,17.3,3.8,6.1,1.4,12,3,17.8,5,5.8,2,10.9,4.6,15.4,7.8,4.5,3.2,8.1,7.3,10.9,12,2.7,4.8,4.1,10.7,4.1,17.8,0,10-2,18.4-6,25.1-4,6.8-9.3,12.2-15.7,16.3-6.5,4.1-13.9,7-22.2,8.7-8.3,1.7-16.8,2.5-25.4,2.5s-17.4-.9-25.9-2.6c-8.4-1.8-15.9-4.7-22.5-8.8-6.6-4.1-11.9-9.6-16.2-16.3-4.2-6.8-6.5-15.2-6.9-25.4h39.7c0,4.5,.9,8.4,2.8,11.6"></path><path class="cls-1" d="M323.4,278.4c6.3,6.1,15.3,9.1,27,9.1s15.7-2.1,21.7-6.3c6.1-4.2,9.8-8.7,11.2-13.4h36.7c-5.9,18.2-14.9,31.3-27,39.1-12.1,7.8-26.8,11.8-44.1,11.8s-22.7-1.9-32.3-5.7c-9.6-3.8-17.7-9.3-24.4-16.3-6.7-7.1-11.8-15.5-15.4-25.3-3.6-9.8-5.4-20.6-5.4-32.3s1.9-21.9,5.6-31.7c3.7-9.8,9-18.3,15.9-25.4,6.9-7.1,15-12.8,24.5-16.9,9.5-4.1,20-6.2,31.6-6.2s24.2,2.5,33.8,7.5c9.6,5,17.5,11.7,23.7,20.1,6.2,8.4,10.6,18,13.4,28.8,2.7,10.8,3.7,22,2.9,33.8h-109.6c.6,13.5,4,23.3,10.3,29.4m47.2-79.9c-5-5.5-12.6-8.2-22.8-8.2s-12.2,1.1-16.6,3.4c-4.4,2.3-7.9,5-10.6,8.4-2.6,3.3-4.5,6.9-5.6,10.6-1.1,3.7-1.7,7.1-1.9,10h67.9c-2-10.6-5.4-18.6-10.4-24.1"></path><polygon class="cls-1" points="104.9 104.9 104.9 143.6 167.8 143.6 167.8 314.7 214 314.7 214 143.6 276.9 143.6 276.9 104.9 104.9 104.9"></polygon></g></svg> 