<svg width="506" height="78" viewBox="0 0 506 78" fill="none" xmlns="http://www.w3.org/2000/svg">
<path d="M19.3283 17.4131V46.3227H73.0114V62.7293H19.3283V76.6712H0V1.11279H79.4513V17.4131H19.3283Z" fill="black"/>
<path d="M147.882 60.5876H102.965L94.9236 76.6712H73.6973L112.395 1.11279H138.444L177.252 76.6712H155.92L147.878 60.5876H147.882ZM140.701 46.1225L125.479 15.4675L110.15 46.1225H140.701Z" fill="black"/>
<path d="M274.55 54.6527C274.55 67.3887 267.172 76.6712 250.165 76.6712H181.713V1.11279H247.602C264.608 1.11279 269.85 9.85561 269.85 20.9732C269.85 26.2622 267.71 31.445 263.967 35.6549C270.388 39.6482 274.555 45.9099 274.555 54.6527H274.55ZM200.963 30.799H240.752C245.888 30.799 250.593 30.799 250.593 22.9187C250.593 15.0383 245.888 15.1488 240.647 15.1488H200.963V30.799ZM255.301 53.6839C255.301 45.6973 250.593 45.6973 245.46 45.6973H200.963V61.6706H245.46C250.593 61.6706 255.301 61.6706 255.301 53.6839Z" fill="black"/>
<path d="M352.399 54.2194L366.267 76.6712H343.476L331.329 56.4879H300.157V76.6712H280.807V1.11279H339.931C357.023 1.11279 368.739 12.0139 368.739 28.8536C368.739 41.1605 362.503 50.2262 352.399 54.2194ZM300.152 40.1878H334.554C340.357 40.1878 349.386 40.1878 349.386 28.8536C349.386 17.5194 340.357 17.4131 334.554 17.4131H300.152V40.1878Z" fill="black"/>
<path d="M394.174 76.6712H374.98V1.11279H394.174V76.6712Z" fill="black"/>
<path d="M447.681 0.224121C477.643 0.224121 492.676 11.608 494.612 33.3059H474.96C473.134 21.1696 463.794 16.4436 447.681 16.4436C428.029 16.4436 419.761 23.427 419.761 38.7842C419.761 54.1416 428.139 61.3404 447.681 61.3404C463.684 61.3404 473.134 56.5088 474.96 44.2627H494.612C492.681 66.0665 477.643 77.5601 447.681 77.5601C414.606 77.5601 400.43 63.8134 400.43 38.7884C400.43 13.7634 414.606 0.224121 447.681 0.224121Z" fill="black"/>
<path d="M79.455 17.1113H60.2617V32.2231H79.455V17.1113Z" fill="black"/>
<path d="M494.527 5.68072C494.527 2.6206 496.955 0.224121 500.12 0.224121C503.285 0.224121 505.712 2.65743 505.712 5.68072C505.712 8.70401 503.285 11.1373 500.12 11.1373C496.955 11.1373 494.527 8.70401 494.527 5.68072ZM504.72 5.68072C504.72 3.09986 502.77 1.14579 500.12 1.14579C497.47 1.14579 495.52 3.13668 495.52 5.68072C495.52 8.22476 497.507 10.142 500.12 10.142C502.732 10.142 504.72 8.18793 504.72 5.68072ZM498.06 8.63035V2.47305H500.487C501.702 2.47305 502.55 3.09986 502.55 4.16908C502.55 5.16464 501.922 5.57 500.967 5.57V5.82827C501.517 5.82827 502.035 6.15997 502.18 6.86043L502.622 8.63035H501.775L501.407 7.04481C501.225 6.23386 500.562 5.93876 499.9 5.93876H498.87V8.63035H498.06ZM498.87 5.31196H500.487C501.445 5.31196 501.775 4.75905 501.775 4.16908C501.775 3.50545 501.335 3.13668 500.487 3.13668H498.87V5.34879V5.31196Z" fill="black"/>
</svg>
