<?xml version="1.0" encoding="UTF-8"?>
<svg id="Layer_1" data-name="Layer 1" xmlns="http://www.w3.org/2000/svg" version="1.1" viewBox="0 0 277 27">
  <defs>
    <style>
      .cls-1 {
        fill: #6f00ff;
        stroke-width: 0px;
      }
    </style>
  </defs>
  <path class="cls-1" d="M55.4,4.6v8.1c0,3.4-2.5,6.4-5.8,6.7-.2,0-.4,0-.6,0h-.2c-1,0-1.9-.3-2.8-.7-.5-.2-.9-.5-1.3-.9-.7-.6-1.3-1.4-1.7-2.2-.4-.8-.6-1.8-.6-2.7,0,0,.2-4.6-.9-6.5C39,2.2,34.2-.4,28.9,0c-6.5.6-11.7,6-12.1,12.5-.1,1.8.2,3.6.8,5.3.6,1.7,1.6,3.3,2.8,4.6,1.2,1.3,2.7,2.4,4.4,3.1,1.7.7,3.4,1.1,5.2,1.1,2.5,0,4.9-.7,7-2.1l-3-6.5c-.7.6-1.6,1-2.4,1.2-.9.2-1.8.2-2.7,0-1.2-.2-2.3-.8-3.2-1.7-.9-.9-1.5-2-1.7-3.2-.2-1-.2-2,.1-2.9.3-1,.7-1.8,1.4-2.6.7-.7,1.5-1.3,2.4-1.6.9-.4,1.9-.5,2.9-.4h0s.2,0,.2,0c.8.1,1.5.4,2.2.8,1.1.6,2,1.6,2.6,2.7.6,1.2.8,2.5.6,3.7-.2,1.3-.2,2.5.2,3.7.6,1.8,1.6,3.4,2.9,4.7.5.5.9.9,1.4,1.3,2.5,1.9,5.7,2.9,8.9,2.6,6.8-.5,11.9-6.5,11.9-13.3V.5l-6.5,4.1Z"/>
  <path class="cls-1" d="M54.1,16.6c-.3.4-.6.8-1,1.1h0s0,.1,0,.1c-1.1,1-2.6,1.6-4.2,1.6h-.2c-1,0-1.9-.3-2.8-.7-4.4-2.1-8-8.3-12.2-10.8.9.6,1.7,1.5,2.2,2.5.6,1.2.8,2.5.6,3.7-.2,1.3-.2,2.5.2,3.7,1,2.7,2.8,5,5.2,6.5,2.4,1.5,5.2,2.3,8.1,2,2.5-.2,4.9-1.2,6.9-2.7h0c0-.1-2.7-7.1-2.7-7.1Z"/>
  <path class="cls-1" d="M81.5,16L68.8.5h-4.9v25.6h5.8v-15.5l12.7,15.5h4.8V.5h-5.8v15.5ZM206.6,16L193.9.5h-4.9v25.6h5.8v-15.5l12.7,15.5h4.8V.5h-5.8v15.5ZM237.1.5h-22.2v4.8h8.2v20.8h5.9V5.3h8.2V.5ZM113.2,6.6c-1.2-1.9-2.8-3.4-4.9-4.5-2.1-1.1-4.6-1.6-7.3-1.6h-11.6v25.6h11.6c2.8,0,5.2-.5,7.3-1.6.7-.4,1.4-.8,2.1-1.3l4.6-10c0-2.5-.6-4.7-1.8-6.6ZM106.7,19.1c-1.5,1.4-3.5,2.1-6.1,2.1h-5.4V5.4h5.4c2.5,0,4.6.7,6.1,2.1,1.5,1.4,2.3,3.4,2.3,5.8s-.8,4.4-2.3,5.8ZM162.7.5l-9.4,15.9L143.7.5h-4.9v16.8l4.1,8.8h1.5v-15l7.5,12.3h2.7l7.5-12.7v15.4h5.6V.5h-4.9ZM123,.5l-11.9,25.6h5.6l2.5-5.4h13.3l2.5,5.4h5.6L128.8.5h-5.8ZM121.5,15.7l4.4-9.4,4.4,9.4h-8.7ZM.8,26.1h5.9v-10.5h8.3v-5H6.7v-5.1h9.7V.5H.8v25.6ZM175.6,15.6h10.4v-5h-10.4v-5.1h11.1V.5h-17v25.6h17s0-5,0-5h-11.2s0-5.5,0-5.5ZM243.1.5l-11.9,25.6h5.6l2.5-5.4h13.3l2.5,5.4h5.6L248.9.5h-5.8ZM241.6,15.7l4.4-9.4,4.4,9.4h-8.7ZM264.3,21.2V.5h-5.5v16.8l4.1,8.8h14v-4.8h-12.6Z"/>
</svg>