<?xml version="1.0" encoding="UTF-8"?><svg id="Layer_2" xmlns="http://www.w3.org/2000/svg" viewBox="0 0 1363.07 347.47"><defs><style>.cls-1{fill:#52efba;}.cls-2{fill:#0a4e47;}</style></defs><g id="Layer_1-2"><path class="cls-1" d="M118.47,229.01c-.02,64.24-51.12,116.55-114.91,118.47v-105.76c0-7.02,5.69-12.71,12.71-12.71h102.2Z"/><path class="cls-2" d="M114.89,0C52.2,0,1.24,50.2,0,112.59h106.93c6.32.71,11.25,6.07,11.25,12.59v11.32h.05v93.31c61.95-1.77,111.6-52.53,111.6-114.89S178.37,0,114.89,0Z"/><path d="M325.59,292.75V78.39h68.94c15.46,0,28.98,2.82,40.58,8.46,11.59,5.64,20.57,13.63,26.95,23.97,6.37,10.34,9.56,22.62,9.56,36.82s-3.19,26.48-9.56,36.82c-6.38,10.34-15.35,18.28-26.95,23.81-11.59,5.54-25.12,8.3-40.58,8.3h-36.04v76.17h-32.9ZM358.49,185.55h32.59c15.87,0,27.58-3.24,35.09-9.71,7.52-6.47,11.28-15.87,11.28-28.2s-3.76-22.04-11.28-28.52c-7.52-6.47-19.22-9.71-35.09-9.71h-32.59v76.14Z"/><path d="M558.09,291.24c-10.45,0-19.85-1.88-28.2-5.64-8.36-3.76-14.99-9.09-19.9-15.98-4.91-6.89-7.36-14.93-7.36-24.13,0-14.2,4.33-25.27,13-33.22,8.67-7.94,21.78-13.58,39.33-16.92l53.89-11.28c0-12.95-2.82-22.66-8.46-29.14-5.64-6.47-14.1-9.71-25.38-9.71-10.45,0-18.59,2.4-24.44,7.21-5.85,4.81-9.82,11.49-11.91,20.05l-33.22-2.19c3.13-15.87,10.76-28.72,22.88-38.54,12.11-9.82,27.68-14.73,46.69-14.73,21.31,0,37.55,6.06,48.73,18.18,11.17,12.12,16.76,28.83,16.76,50.14v65.8c0,3.76.83,6.42,2.51,7.99,1.67,1.57,4.07,2.35,7.21,2.35h9.4v26.01c-1.25.21-3.29.42-6.11.63-2.82.21-5.59.31-8.3.31-7.52,0-13.9-1.25-19.11-3.76-5.22-2.51-9.14-6.42-11.75-11.75-2.62-5.33-4.13-12.06-4.54-20.21h5.01c-1.25,7.31-4.49,13.89-9.71,19.74-5.22,5.85-11.91,10.45-20.05,13.79-8.15,3.34-17.13,5.01-26.95,5.01ZM562.79,265.23c10.03,0,18.49-1.77,25.38-5.33,6.89-3.55,12.06-8.56,15.51-15.04,3.45-6.47,5.17-14.1,5.17-22.87v-12.85l-46.38,9.4c-10.03,1.88-17.03,4.81-20.99,8.77-3.97,3.97-5.95,9.19-5.95,15.67,0,6.89,2.4,12.33,7.21,16.29,4.8,3.97,11.49,5.95,20.05,5.95Z"/><path d="M772.42,291.24c-15.46,0-29.09-3.6-40.89-10.81-11.8-7.21-20.89-17.34-27.26-30.39-6.37-13.05-9.56-28.36-9.56-45.91s3.18-32.79,9.56-45.75c6.37-12.95,15.46-23.08,27.26-30.39,11.8-7.31,25.43-10.97,40.89-10.97,12.74,0,24.13,2.35,34.15,7.05s18.28,11.55,24.75,20.52c6.47,8.98,10.76,19.74,12.85,32.27l-32.28,2.19c-2.51-10.65-7.21-18.8-14.1-24.44-6.89-5.64-15.25-8.46-25.07-8.46-14,0-25.02,5.17-33.06,15.51-8.04,10.34-12.06,24.49-12.06,42.46s4.02,32.12,12.06,42.46c8.04,10.34,19.06,15.51,33.06,15.51,10.03,0,18.64-2.98,25.85-8.93,7.21-5.95,11.96-14.78,14.26-26.48l32.28,1.88c-2.09,12.74-6.48,23.76-13.16,33.06-6.69,9.3-15.09,16.56-25.22,21.78-10.13,5.22-21.57,7.83-34.31,7.83Z"/><path d="M892.83,147.41v-26.63h93.92v26.63h-93.92ZM940.37,287.48c-16.92,0-29.51-3.92-37.76-11.75-8.25-7.83-12.38-19.9-12.38-36.19V81.61h31.65v156.36c0,7.73,1.83,13.47,5.48,17.23,3.65,3.76,9.14,5.64,16.45,5.64h42.93v26.64h-46.38Z"/><path d="M1104.56,291.24c-15.46,0-28.98-3.55-40.58-10.65-11.59-7.1-20.58-17.18-26.95-30.24-6.37-13.05-9.56-28.46-9.56-46.22s3.18-33.16,9.56-46.22c6.37-13.05,15.35-23.14,26.95-30.24,11.59-7.1,25.12-10.65,40.58-10.65s28.99,3.56,40.58,10.65c11.59,7.1,20.57,17.13,26.95,30.08,6.37,12.96,9.56,28.41,9.56,46.38s-3.19,32.9-9.56,46.06c-6.37,13.16-15.35,23.29-26.95,30.39-11.59,7.1-25.12,10.65-40.58,10.65ZM1104.56,262.1c13.99,0,24.8-5.12,32.43-15.35,7.62-10.23,11.44-24.44,11.44-42.62s-3.82-32.38-11.44-42.61c-7.63-10.23-18.44-15.35-32.43-15.35s-24.81,5.12-32.43,15.35c-7.63,10.24-11.44,24.44-11.44,42.61s3.81,32.38,11.44,42.62c7.62,10.24,18.44,15.35,32.43,15.35Z"/><path d="M1295.07,291.24c-14.83,0-27.57-2.51-38.23-7.52-10.65-5.01-18.91-11.75-24.75-20.21-5.85-8.46-9.19-17.91-10.03-28.36l32.27-1.88c1.67,8.98,5.85,16.14,12.54,21.46,6.68,5.33,16.19,7.99,28.51,7.99,11.49,0,20.26-1.57,26.32-4.7,6.06-3.13,9.09-8.04,9.09-14.73,0-4.18-1.05-7.68-3.13-10.5-2.09-2.82-6.01-5.22-11.75-7.21-5.75-1.98-14.15-4.02-25.22-6.11-16.51-3.13-29.41-6.84-38.7-11.12-9.3-4.28-15.93-9.71-19.9-16.29-3.97-6.58-5.95-14.57-5.95-23.97s2.45-18.28,7.36-26.01c4.91-7.73,12.17-13.84,21.78-18.33,9.61-4.49,21.51-6.74,35.72-6.74s27.05,2.56,36.66,7.68c9.61,5.12,17.13,11.75,22.56,19.9,5.43,8.15,8.88,17.03,10.34,26.63l-32.27,1.88c-1.25-5.43-3.45-10.18-6.58-14.26-3.13-4.07-7.32-7.31-12.53-9.71-5.22-2.4-11.28-3.6-18.18-3.6-11.08,0-19.22,2.19-24.44,6.58-5.22,4.39-7.83,9.71-7.83,15.98,0,5.01,1.25,9.04,3.76,12.06,2.51,3.03,6.68,5.54,12.53,7.52,5.85,1.99,13.79,3.92,23.82,5.8,16.92,2.72,29.97,6.22,39.17,10.5,9.19,4.28,15.67,9.56,19.43,15.82,3.76,6.27,5.64,14,5.64,23.19,0,10.03-2.87,18.64-8.62,25.85-5.75,7.21-13.68,12.74-23.81,16.61-10.13,3.86-21.99,5.8-35.57,5.8Z"/></g></svg>